<?xml version="1.0" encoding="utf-8"?>
<!-- Generator: Adobe Illustrator 27.0.1, SVG Export Plug-In . SVG Version: 6.00 Build 0)  -->
<svg version="1.1" id="Ebene_1" xmlns="http://www.w3.org/2000/svg" xmlns:xlink="http://www.w3.org/1999/xlink" x="0px" y="0px"
	 viewBox="0 0 448 512" style="enable-background:new 0 0 448 512;" xml:space="preserve">
<path d="M246.6,233.4l-192-192c-12.5-12.5-32.8-12.5-45.2,0s-12.5,32.8,0,45.2L178.8,256L9.4,425.4c-12.5,12.5-12.5,32.8,0,45.2
	c6.2,6.2,14.4,9.4,22.6,9.4s16.4-3.1,22.6-9.4l192-192C259.1,266.1,259.1,245.9,246.6,233.4z M438.6,233.4l-192-192
	c-12.5-12.5-32.8-12.5-45.2,0s-12.5,32.8,0,45.2L370.8,256L201.4,425.4c-12.5,12.5-12.5,32.8,0,45.2c6.2,6.2,14.4,9.4,22.6,9.4
	s16.4-3.1,22.6-9.4l192-192C451.1,266.1,451.1,245.9,438.6,233.4z"/>
</svg>
