<?xml version="1.0" encoding="utf-8"?>
<!-- Generator: Adobe Illustrator 27.0.1, SVG Export Plug-In . SVG Version: 6.00 Build 0)  -->
<svg version="1.1" id="Ebene_1" xmlns="http://www.w3.org/2000/svg" xmlns:xlink="http://www.w3.org/1999/xlink" x="0px" y="0px"
	 viewBox="0 0 448 512" style="enable-background:new 0 0 448 512;" xml:space="preserve">
<path d="M77.2,256L246.6,86.6c12.5-12.5,12.5-32.8,0-45.2s-32.8-12.5-45.2,0l-192,192c-12.5,12.5-12.5,32.8,0,45.2l192,192
	c6.2,6.3,14.4,9.4,22.6,9.4s16.4-3.1,22.6-9.4c12.5-12.5,12.5-32.8,0-45.2L77.2,256z M269.3,256L438.7,86.6
	c12.5-12.5,12.5-32.8,0-45.2s-32.8-12.5-45.2,0l-192,192c-12.5,12.5-12.5,32.8,0,45.2l192,192c6.2,6.3,14.4,9.4,22.6,9.4
	s16.4-3.1,22.6-9.4c12.5-12.5,12.5-32.8,0-45.2L269.3,256z"/>
</svg>
