<svg width="27" height="27" viewBox="0 0 27 27" fill="none" xmlns="http://www.w3.org/2000/svg">
<rect width="27" height="27" rx="3" fill="#24272E"/>
<path d="M13.5 15.7217C14.7098 15.7217 15.6905 14.727 15.6905 13.4999C15.6905 12.2727 14.7098 11.278 13.5 11.278C12.2902 11.278 11.3095 12.2727 11.3095 13.4999C11.3095 14.727 12.2902 15.7217 13.5 15.7217Z" fill="#479DC6"/>
<path fill-rule="evenodd" clip-rule="evenodd" d="M5.98022 10.4714C4.03251 11.3604 3.09524 12.4741 3.09524 13.4999C3.09524 14.5256 4.03251 15.6393 5.98022 16.5283C7.87653 17.3939 10.5347 17.9436 13.5 17.9436C16.4653 17.9436 19.1235 17.3939 21.0198 16.5283C22.9675 15.6393 23.9048 14.5256 23.9048 13.4999C23.9048 12.4741 22.9675 11.3604 21.0198 10.4714C19.1235 9.60582 16.4653 9.05608 13.5 9.05608C10.5347 9.05608 7.87653 9.60582 5.98022 10.4714ZM5.53077 9.45831C7.59845 8.51451 10.4165 7.94513 13.5 7.94513C16.5835 7.94513 19.4016 8.51451 21.4692 9.45831C23.4855 10.3786 25 11.7646 25 13.4999C25 15.2351 23.4855 16.6211 21.4692 17.5414C19.4016 18.4852 16.5835 19.0546 13.5 19.0546C10.4165 19.0546 7.59845 18.4852 5.53077 17.5414C3.5145 16.6211 2 15.2351 2 13.4999C2 11.7646 3.5145 10.3786 5.53077 9.45831Z" fill="#479DC6"/>
<path fill-rule="evenodd" clip-rule="evenodd" d="M12.3257 5.38006C10.5928 4.11362 9.17335 3.8471 8.29757 4.35999C7.42178 4.87287 6.93961 6.25304 7.15442 8.40851C7.36356 10.5071 8.22327 13.117 9.70593 15.7219C11.1886 18.3268 12.987 20.3869 14.6742 21.6199C16.4071 22.8864 17.8265 23.1529 18.7023 22.64C19.5781 22.1271 20.0603 20.747 19.8455 18.5915C19.6363 16.4929 18.7766 13.883 17.294 11.2781C15.8113 8.67324 14.0129 6.61307 12.3257 5.38006ZM12.9659 4.47869C14.8056 5.82313 16.7007 8.01394 18.2425 10.7226C19.7842 13.4313 20.7071 16.1915 20.9352 18.4798C21.1575 20.7111 20.7315 22.7345 19.2499 23.6021C17.7684 24.4697 15.8279 23.8323 14.034 22.5213C12.1943 21.1769 10.2992 18.9861 8.75743 16.2774C7.21567 13.5687 6.29277 10.8085 6.06473 8.52025C5.84236 6.2889 6.26843 4.2655 7.74995 3.39788C9.23146 2.53026 11.172 3.16768 12.9659 4.47869Z" fill="#479DC6"/>
<path fill-rule="evenodd" clip-rule="evenodd" d="M19.8455 8.40851C20.0603 6.25304 19.5781 4.87287 18.7023 4.35999C17.8265 3.8471 16.4071 4.11362 14.6742 5.38006C12.987 6.61307 11.1886 8.67324 9.70593 11.2781C8.22327 13.883 7.36356 16.4929 7.15442 18.5915C6.93961 20.747 7.42178 22.1271 8.29757 22.64C9.17335 23.1529 10.5928 22.8864 12.3257 21.6199C14.0129 20.3869 15.8113 18.3268 17.294 15.7219C18.7766 13.117 19.6363 10.5071 19.8455 8.40851ZM20.9352 8.52025C20.7071 10.8085 19.7842 13.5687 18.2425 16.2774C16.7007 18.9861 14.8056 21.1769 12.9659 22.5213C11.172 23.8323 9.23146 24.4697 7.74995 23.6021C6.26843 22.7345 5.84236 20.7111 6.06473 18.4798C6.29277 16.1915 7.21567 13.4313 8.75743 10.7226C10.2992 8.01394 12.1943 5.82313 14.034 4.47869C15.8279 3.16768 17.7684 2.53026 19.2499 3.39788C20.7315 4.2655 21.1575 6.2889 20.9352 8.52025Z" fill="#479DC6"/>
</svg>