<svg xmlns="http://www.w3.org/2000/svg" width="1014" height="319" fill="none"><style><![CDATA[.B{fill:#e1e4e7}.C{fill:#d5d8db}.D{fill:#097ea3}.E{fill:#283540}]]></style><path d="M0 151a6 6 0 0 1 6-6h1002c3.31 0 6 2.686 6 6v96c0 3.314-2.69 6-6 6H6a6 6 0 0 1-6-6v-96z" fill="#fff"/><path d="M1008 249v4H6v-4h1002zm2-2v-96c0-1.105-.9-2-2-2H6a2 2 0 0 0-2 2v96a2 2 0 0 0 2 2v4l-.309-.008a6 6 0 0 1-5.684-5.683L0 247v-96a6 6 0 0 1 6-6h1002c3.31 0 6 2.686 6 6v96l-.01.309c-.15 3.068-2.61 5.528-5.68 5.683l-.31.008v-4c1.1 0 2-.895 2-2z" class="C"/><path d="M215.287 188v21.818h-3.303v-18.515h-.128l-5.22 3.409v-3.154L212.08 188h3.207zm737.135 18.699h3.413l5.165-7.671v-.255h-3.669l-4.909 7.926zm0-15.699l4.909 7.926H961v-.256l-5.165-7.67h-3.413zm-7.172 15.699h3.413l5.165-7.671v-.255h-3.669l-4.909 7.926zm0-15.699l4.909 7.926h3.669v-.256l-5.165-7.67h-3.413zm-72.828 15.699h3.413l5.165-7.671v-.255h-3.669l-4.909 7.926zm0-15.699l4.909 7.926H881v-.256l-5.165-7.67h-3.413zm-87.931 19.116l9.525-18.835v-.16H783v-2.823h14.425v2.919l-9.492 18.899h-3.442zm23.766.363c-1.684-.007-3.122-.451-4.315-1.332s-2.106-2.163-2.738-3.846-.948-3.711-.948-6.083c0-2.365.316-4.386.948-6.062.639-1.676 1.555-2.954 2.749-3.835 1.2-.881 2.635-1.321 4.304-1.321s3.1.444 4.293 1.332c1.193.88 2.106 2.159 2.738 3.835.639 1.669.959 3.686.959 6.051 0 2.379-.316 4.411-.949 6.094-.632 1.676-1.544 2.958-2.737 3.846-1.194.88-2.628 1.321-4.304 1.321zm0-2.845c1.477 0 2.631-.721 3.462-2.162.838-1.442 1.257-3.527 1.257-6.254 0-1.811-.192-3.342-.575-4.592-.377-1.257-.92-2.208-1.63-2.855-.703-.653-1.541-.98-2.514-.98-1.471 0-2.625.725-3.463 2.173s-1.26 3.534-1.268 6.254c0 1.818.189 3.356.565 4.613.384 1.25.927 2.198 1.63 2.844.703.64 1.548.959 2.536.959zm-89.69-6.035a2.74 2.74 0 0 1-1.995-.818 2.65 2.65 0 0 1-.818-1.994 2.62 2.62 0 0 1 .818-1.969 2.74 2.74 0 0 1 1.995-.818c.75 0 1.402.273 1.956.818.562.546.848 1.202.856 1.969-.008.52-.145.993-.409 1.419-.256.426-.597.767-1.023 1.023a2.66 2.66 0 0 1-1.38.37zm10.441 0c-.776 0-1.44-.272-1.994-.818a2.65 2.65 0 0 1-.819-1.994c-.008-.767.265-1.423.819-1.969a2.74 2.74 0 0 1 1.994-.818c.75 0 1.402.273 1.956.818.562.546.848 1.202.856 1.969-.008.52-.144.993-.409 1.419-.255.426-.596.767-1.022 1.023-.418.247-.878.37-1.381.37zm10.441 0c-.775 0-1.44-.272-1.994-.818s-.827-1.21-.818-1.994c-.009-.767.264-1.423.818-1.969a2.74 2.74 0 0 1 1.994-.818c.75 0 1.402.273 1.956.818.563.546.848 1.202.857 1.969-.009.52-.145.993-.409 1.419-.256.426-.597.767-1.023 1.023-.418.247-.878.37-1.381.37z" class="E"/><path d="M319 164a6 6 0 0 1 6-6h363a6 6 0 0 1 6 6v70a6 6 0 0 1-6 6H325a6 6 0 0 1-6-6v-70z" fill="#f6f6f6"/><path d="M688 236v4H325v-4h363zm2-2v-70a2 2 0 0 0-2-2H325a2 2 0 0 0-2 2v70a2 2 0 0 0 2 2v4l-.309-.008A6 6 0 0 1 319 234v-70a6 6 0 0 1 6-6h363a6 6 0 0 1 6 6v70a6 6 0 0 1-5.691 5.992L688 240v-4a2 2 0 0 0 2-2z" class="C"/><path d="M555 177a6 6 0 0 1 6-6h115a6 6 0 0 1 6 6v44a6 6 0 0 1-6 6H561a6 6 0 0 1-6-6v-44z" class="B"/><path d="M583.651 188v21.818h-3.303v-18.515h-.128l-5.22 3.409v-3.154l5.444-3.558h3.207zm14.179 0v21.818h-3.302v-18.515h-.128l-5.22 3.409v-3.154l5.444-3.558h3.206zm44.821.298v21.818h-3.303v-18.515h-.128L634 195.01v-3.153l5.444-3.559h3.207zm5.902 21.818v-2.386l7.382-7.649 1.95-2.184c.518-.632.905-1.232 1.161-1.8a4.36 4.36 0 0 0 .384-1.811c0-.725-.171-1.35-.512-1.875-.341-.533-.806-.942-1.395-1.226-.59-.291-1.254-.436-1.992-.436-.782 0-1.464.159-2.046.479s-1.03.771-1.342 1.353-.469 1.264-.469 2.045h-3.143c0-1.328.306-2.489.916-3.483a6.22 6.22 0 0 1 2.515-2.312c1.065-.554 2.276-.831 3.632-.831 1.371 0 2.579.273 3.623.82 1.051.54 1.871 1.279 2.461 2.216.589.931.884 1.982.884 3.154 0 .809-.153 1.601-.458 2.375-.299.774-.821 1.637-1.566 2.589-.746.945-1.783 2.092-3.111 3.441l-4.336 4.539v.159h9.822v2.823h-14.36z" class="E"/><path d="M476 175a6 6 0 0 1 6-6h49a6 6 0 0 1 6 6v49a6 6 0 0 1-6 6h-49a6 6 0 0 1-6-6v-49z" class="D"/><path d="M500.604 189.298v21.818h-3.303v-18.515h-.127l-5.221 3.409v-3.153l5.444-3.559h3.207zm13.498 22.181c-1.683-.007-3.122-.451-4.315-1.332s-2.106-2.163-2.738-3.846-.948-3.711-.948-6.083c0-2.365.316-4.386.948-6.062.639-1.676 1.556-2.954 2.749-3.835 1.2-.881 2.635-1.321 4.304-1.321s3.1.444 4.293 1.332c1.193.88 2.106 2.159 2.738 3.835.639 1.669.959 3.686.959 6.051 0 2.379-.316 4.411-.948 6.094-.632 1.676-1.545 2.958-2.738 3.846-1.193.88-2.628 1.321-4.304 1.321zm0-2.845c1.477 0 2.631-.721 3.462-2.162.838-1.442 1.257-3.527 1.257-6.254 0-1.811-.192-3.342-.575-4.592-.376-1.257-.92-2.208-1.63-2.855-.703-.653-1.541-.98-2.514-.98-1.47 0-2.624.725-3.463 2.173s-1.26 3.534-1.267 6.254c0 1.818.188 3.356.564 4.613.384 1.25.927 2.198 1.63 2.844.703.64 1.549.959 2.536.959z" fill="#fff"/><path d="M333 177a6 6 0 0 1 6-6h115a6 6 0 0 1 6 6v44a6 6 0 0 1-6 6H339a6 6 0 0 1-6-6v-44z" class="B"/><path d="M360.767 210.415c-1.527 0-2.877-.263-4.049-.789-1.165-.525-2.077-1.25-2.738-2.173s-.987-1.974-.98-3.153c-.007-.924.181-1.772.565-2.546.39-.782.92-1.432 1.587-1.95.668-.526 1.414-.859 2.237-1.001v-.128c-1.086-.263-1.956-.845-2.61-1.747s-.976-1.939-.969-3.111c-.007-1.115.288-2.11.884-2.983.604-.881 1.431-1.573 2.482-2.078s2.248-.756 3.591-.756c1.328 0 2.514.256 3.558.767 1.051.504 1.878 1.197 2.482 2.077.604.874.909 1.865.916 2.973-.007 1.172-.341 2.209-1.001 3.111a4.44 4.44 0 0 1-2.578 1.747v.128a4.77 4.77 0 0 1 2.205 1.001c.66.518 1.186 1.168 1.577 1.95a5.59 5.59 0 0 1 .607 2.546c-.007 1.179-.341 2.23-1.002 3.153s-1.576 1.648-2.748 2.173c-1.165.526-2.504.789-4.016.789zm0-2.696c.902 0 1.683-.149 2.343-.447.661-.305 1.172-.728 1.534-1.268.363-.547.547-1.186.554-1.917-.007-.76-.206-1.431-.596-2.014-.384-.582-.906-1.04-1.566-1.374s-1.417-.501-2.269-.501c-.86 0-1.623.167-2.291.501s-1.193.792-1.577 1.374-.571 1.254-.564 2.014c-.007.731.167 1.37.522 1.917.362.54.877.963 1.544 1.268.668.298 1.456.447 2.366.447zm0-10.152c.724 0 1.367-.146 1.928-.437s1.001-.696 1.321-1.215c.327-.518.493-1.125.501-1.821-.008-.682-.171-1.279-.491-1.79-.312-.511-.749-.906-1.31-1.183-.561-.284-1.211-.426-1.949-.426-.753 0-1.414.142-1.982.426-.561.277-.998.672-1.31 1.183s-.466 1.108-.458 1.79c-.008.696.149 1.303.468 1.821s.76.924 1.321 1.215c.568.291 1.222.437 1.961.437zM432.591 188a8.46 8.46 0 0 1 2.876.533c.945.348 1.797.916 2.557 1.705.767.788 1.378 1.853 1.832 3.196.462 1.335.696 2.997.704 4.985 0 1.911-.192 3.612-.576 5.103-.383 1.485-.934 2.738-1.651 3.761-.71 1.023-1.573 1.801-2.589 2.333s-2.159.799-3.43.799c-1.3 0-2.454-.255-3.463-.767s-1.828-1.218-2.461-2.12c-.632-.909-1.026-1.953-1.182-3.132h3.249c.213.938.647 1.697 1.3 2.28.66.575 1.513.863 2.557.863 1.598 0 2.844-.696 3.739-2.088.895-1.399 1.346-3.353 1.353-5.86h-.17c-.37.611-.831 1.137-1.385 1.577-.547.44-1.162.781-1.843 1.023s-1.41.362-2.184.362c-1.257 0-2.401-.309-3.431-.927s-1.85-1.466-2.461-2.546-.916-2.312-.916-3.697c0-1.378.313-2.628.938-3.75.632-1.122 1.512-2.01 2.642-2.663 1.136-.661 2.468-.984 3.995-.97zm.01 2.77c-.831 0-1.58.206-2.247.618-.661.405-1.183.955-1.567 1.652-.383.688-.575 1.455-.575 2.301s.185 1.612.554 2.301a4.4 4.4 0 0 0 1.534 1.63c.654.397 1.399.596 2.237.596.625 0 1.208-.12 1.748-.362a4.44 4.44 0 0 0 1.417-1.001 4.93 4.93 0 0 0 .948-1.47 4.46 4.46 0 0 0 .341-1.726 4.52 4.52 0 0 0-.576-2.238c-.376-.688-.895-1.242-1.555-1.661-.661-.427-1.413-.64-2.259-.64zm-157.806 10.331c-.699 0-1.3-.247-1.802-.742a2.47 2.47 0 0 1-.755-1.815 2.42 2.42 0 0 1 .755-1.79c.502-.503 1.103-.754 1.802-.754a2.46 2.46 0 0 1 1.803.754 2.42 2.42 0 0 1 .754 1.79 2.43 2.43 0 0 1-.358 1.291c-.23.384-.537.691-.92.921a2.44 2.44 0 0 1-1.279.345zm10.195 0a2.48 2.48 0 0 1-1.802-.742 2.47 2.47 0 0 1-.754-1.815c0-.699.251-1.295.754-1.79.503-.503 1.104-.754 1.802-.754a2.46 2.46 0 0 1 1.803.754c.503.495.754 1.091.754 1.79a2.43 2.43 0 0 1-.358 1.291c-.23.384-.537.691-.92.921a2.44 2.44 0 0 1-1.279.345zm10.196 0a2.48 2.48 0 0 1-1.803-.742 2.47 2.47 0 0 1-.754-1.815c0-.699.251-1.295.754-1.79a2.46 2.46 0 0 1 1.803-.754c.699 0 1.299.251 1.802.754a2.42 2.42 0 0 1 .755 1.79 2.44 2.44 0 0 1-.358 1.291c-.231.384-.537.691-.921.921a2.44 2.44 0 0 1-1.278.345zm-231.537 5.598h-3.413l-5.165-7.671v-.255h3.669l4.909 7.926zm0-15.699l-4.909 7.926h-3.669v-.256l5.165-7.67h3.413zm7.172 15.699h-3.413l-5.165-7.671v-.255h3.669l4.909 7.926zm0-15.699l-4.909 7.926h-3.669v-.256l5.165-7.67h3.413zm72.414 15.699h-3.414l-5.164-7.671v-.255h3.669l4.909 7.926zm0-15.699l-4.909 7.926h-3.669v-.256l5.164-7.67h3.414z" class="E"/><path d="M446 47a6 6 0 0 1 6-6h111a6 6 0 0 1 6 6v28a6 6 0 0 1-6 6H452a6 6 0 0 1-6-6V47z" class="B"/><path d="M534.702 56.17v2.32h3.577v1.573h-3.577v4.544c0 .352.041.648.123.888a1.36 1.36 0 0 0 .361.554c.152.141.334.24.544.299s.443.088.695.088l.562-.026.563-.07.492-.079.396-.088.228 1.45c-.152.094-.337.176-.554.246a6.55 6.55 0 0 1-.685.167 7.7 7.7 0 0 1-.774.105c-.263.029-.527.044-.791.044a4.35 4.35 0 0 1-1.327-.193 2.67 2.67 0 0 1-1.028-.624c-.287-.275-.513-.63-.677-1.063-.158-.434-.237-.955-.237-1.564v-4.676h-2.303V58.49h2.303v-2.32h2.109zm-10.591 12.006c-.703 0-1.347-.117-1.933-.352a4.43 4.43 0 0 1-1.494-.976 4.31 4.31 0 0 1-.967-1.45 4.89 4.89 0 0 1-.334-1.819v-.36c0-.744.117-1.418.351-2.022s.557-1.119.967-1.547.885-.756 1.424-.984c.545-.234 1.125-.351 1.74-.351.686 0 1.292.117 1.82.351a3.68 3.68 0 0 1 1.327.958 4.18 4.18 0 0 1 .808 1.485c.182.574.273 1.201.273 1.881v.905h-6.592v.044c.064.416.164.765.299 1.046a2.56 2.56 0 0 0 .554.756c.234.234.509.416.826.545a2.81 2.81 0 0 0 1.054.193 3.57 3.57 0 0 0 1.459-.299c.452-.205.824-.495 1.117-.87l1.125 1.09c-.317.457-.803.867-1.459 1.23s-1.439.545-2.365.545zm-.255-8.156c-.298 0-.577.056-.835.167-.251.105-.477.258-.676.457-.199.205-.366.451-.501.738a3.86 3.86 0 0 0-.299.976h4.474v-.141a2.33 2.33 0 0 0-.15-.817 2.19 2.19 0 0 0-.422-.721 1.88 1.88 0 0 0-.668-.475 2.16 2.16 0 0 0-.923-.185zm-8.78 5.405a.85.85 0 0 0-.114-.439c-.07-.129-.191-.252-.36-.369-.182-.106-.419-.205-.712-.299s-.66-.182-1.099-.264a10.79 10.79 0 0 1-1.512-.413c-.451-.164-.841-.363-1.169-.598-.322-.223-.574-.486-.756-.791s-.272-.659-.272-1.064c0-.387.091-.753.272-1.099.188-.351.455-.659.8-.923s.75-.472 1.231-.624 1.025-.228 1.617-.228c.633 0 1.201.079 1.705.237.504.152.932.363 1.283.633s.613.589.8.958a2.61 2.61 0 0 1 .281 1.195h-2.1a1.13 1.13 0 0 0-.115-.501c-.07-.164-.175-.31-.316-.439a1.74 1.74 0 0 0-.633-.36c-.258-.094-.559-.141-.905-.141a2.98 2.98 0 0 0-.835.105c-.234.064-.428.155-.58.272a1.05 1.05 0 0 0-.343.378.93.93 0 0 0-.114.448c0 .164.032.313.097.448.064.129.178.243.342.343.153.106.364.202.633.29a7.68 7.68 0 0 0 1.037.237 12.71 12.71 0 0 1 1.591.387c.48.153.891.34 1.231.563.339.234.603.51.791.826s.281.691.281 1.125c0 .422-.1.809-.299 1.16-.193.352-.469.653-.826.905a4.29 4.29 0 0 1-1.301.589c-.504.141-1.063.211-1.679.211-.685 0-1.295-.091-1.828-.273-.527-.182-.97-.422-1.327-.721-.363-.293-.639-.63-.826-1.011a2.61 2.61 0 0 1-.281-1.16h2.039a1.49 1.49 0 0 0 .228.747 1.67 1.67 0 0 0 .528.483 2.19 2.19 0 0 0 .703.281 4.04 4.04 0 0 0 .799.079c.364 0 .68-.038.95-.114s.495-.179.659-.308c.135-.105.234-.22.299-.343a.87.87 0 0 0 .105-.422zM500.442 68v-7.937h-2.548V58.49h2.548v-.58c0-.621.094-1.166.282-1.635a3.25 3.25 0 0 1 .817-1.195 3.54 3.54 0 0 1 1.266-.721c.493-.164 1.054-.246 1.67-.246a5.67 5.67 0 0 1 .632.035l.616.07.501.088.518.097-.167 1.679c-.234-.064-.501-.12-.8-.167a6.38 6.38 0 0 0-1.002-.07c-.392 0-.732.047-1.019.141-.281.094-.513.231-.694.413-.17.17-.299.381-.387.633-.082.252-.123.545-.123.879v.58h3.524v1.573h-3.524V68h-2.11zm-10.81 0v-7.937h-2.549V58.49h2.549v-.58c0-.621.094-1.166.281-1.635.193-.475.466-.873.817-1.195a3.55 3.55 0 0 1 1.266-.721c.498-.164 1.055-.246 1.67-.246a5.58 5.58 0 0 1 .633.035l.615.07.501.088.519.097-.167 1.679c-.235-.064-.501-.12-.8-.167a6.38 6.38 0 0 0-1.002-.07c-.393 0-.733.047-1.02.141-.281.094-.512.231-.694.413-.17.17-.299.381-.387.633-.082.252-.123.545-.123.879v.58h3.525v1.573h-3.525V68h-2.109zm-13.588-4.843c0-.691.1-1.33.299-1.916a4.44 4.44 0 0 1 .87-1.538 3.95 3.95 0 0 1 1.38-1.02c.545-.247 1.166-.369 1.863-.369s1.318.123 1.863.369c.551.246 1.017.586 1.398 1.02.375.434.662.946.861 1.538.199.586.299 1.225.299 1.916v.185c0 .697-.1 1.339-.299 1.925s-.486 1.096-.861 1.529-.838.773-1.389 1.019c-.545.246-1.163.369-1.854.369-.698 0-1.322-.123-1.872-.369s-1.014-.586-1.389-1.019c-.381-.434-.671-.943-.87-1.529a5.95 5.95 0 0 1-.299-1.925v-.185zm2.101.185c0 .428.043.832.131 1.213a3.12 3.12 0 0 0 .431 1.002 2.13 2.13 0 0 0 .721.686c.293.164.641.246 1.046.246.392 0 .735-.082 1.028-.246a2.12 2.12 0 0 0 .721-.686c.188-.288.325-.621.413-1.002a5.1 5.1 0 0 0 .14-1.213v-.185a5.02 5.02 0 0 0-.14-1.195 3.36 3.36 0 0 0-.413-1.002 2.21 2.21 0 0 0-.73-.686c-.287-.17-.633-.255-1.037-.255-.398 0-.744.085-1.037.255a2.15 2.15 0 0 0-.712.686 3.12 3.12 0 0 0-.431 1.002c-.088.381-.131.779-.131 1.195v.185z" class="D"/><path d="M394 67a8 8 0 0 1 8-8h38v4h-38a4 4 0 0 0-4 4v104h-4V67zm227 0a8 8 0 0 0-8-8h-38v4h38a4 4 0 0 1 4 4v104h4V67zM511 279h-4v-42h4v42z" class="C"/><path d="M435 285a6 6 0 0 1 6-6h133a6 6 0 0 1 6 6v28a6 6 0 0 1-6 6H441a6 6 0 0 1-6-6v-28z" class="B"/><path d="M563.724 303.425c0-.164-.038-.311-.115-.44-.07-.129-.19-.252-.36-.369-.182-.105-.419-.205-.712-.299s-.659-.181-1.099-.263a10.95 10.95 0 0 1-1.511-.413 4.87 4.87 0 0 1-1.169-.598c-.322-.223-.574-.486-.756-.791s-.273-.659-.273-1.064c0-.386.091-.752.273-1.098a2.83 2.83 0 0 1 .8-.923c.34-.264.75-.472 1.23-.624.487-.152 1.026-.229 1.617-.229.633 0 1.202.08 1.705.238.504.152.932.363 1.284.633.345.269.612.588.8.958s.281.767.281 1.195h-2.101a1.14 1.14 0 0 0-.114-.501 1.28 1.28 0 0 0-.316-.44c-.165-.152-.376-.272-.633-.36-.258-.094-.56-.141-.906-.141-.316 0-.594.036-.835.106a1.67 1.67 0 0 0-.58.272c-.152.106-.266.232-.342.378a.92.92 0 0 0-.115.449 1.03 1.03 0 0 0 .097.448c.064.129.179.243.343.343.152.105.363.202.633.29a7.47 7.47 0 0 0 1.037.237c.58.105 1.11.234 1.591.387a5.03 5.03 0 0 1 1.23.562c.34.235.604.51.791.826s.281.692.281 1.125c0 .422-.099.809-.299 1.16a2.68 2.68 0 0 1-.826.906 4.29 4.29 0 0 1-1.301.589c-.503.14-1.063.211-1.678.211-.686 0-1.295-.091-1.828-.273s-.97-.422-1.327-.721c-.364-.293-.639-.629-.827-1.01a2.61 2.61 0 0 1-.281-1.16h2.039c.018.292.094.541.229.747.14.199.316.36.527.483a2.19 2.19 0 0 0 .703.281 4.05 4.05 0 0 0 .8.079c.363 0 .68-.038.949-.114.276-.076.495-.179.659-.308.135-.105.235-.219.299-.342a.87.87 0 0 0 .106-.422zm-10.451-7.111c.34 0 .668.024.985.071s.574.102.756.167l-.299 2.074a9.37 9.37 0 0 0-.958-.158 8.32 8.32 0 0 0-.932-.053c-.351 0-.668.035-.949.106a2.34 2.34 0 0 0-.747.325c-.234.14-.434.319-.598.536s-.302.466-.413.747V306h-2.1v-9.51h1.968l.088 1.319.009.219c.387-.533.85-.952 1.389-1.257.545-.304 1.145-.457 1.801-.457zm-12.946 9.862c-.703 0-1.348-.117-1.933-.352s-1.079-.559-1.495-.975a4.31 4.31 0 0 1-.966-1.451 4.89 4.89 0 0 1-.334-1.819v-.36c0-.744.117-1.418.351-2.022s.557-1.119.967-1.547a4.27 4.27 0 0 1 1.424-.984c.545-.234 1.125-.352 1.74-.352.686 0 1.292.118 1.819.352s.97.548 1.328.958c.357.416.626.911.808 1.485a6.2 6.2 0 0 1 .273 1.881v.906h-6.592v.043c.064.416.164.765.299 1.046a2.54 2.54 0 0 0 .553.756 2.47 2.47 0 0 0 .827.545c.322.129.673.193 1.054.193.522 0 1.008-.099 1.459-.298a2.93 2.93 0 0 0 1.116-.87l1.125 1.089c-.316.457-.802.868-1.459 1.231-.65.363-1.438.545-2.364.545zm-.255-8.156c-.299 0-.577.055-.835.167a2.07 2.07 0 0 0-.676.457 2.65 2.65 0 0 0-.501.738c-.135.287-.235.612-.299.975h4.473v-.14c0-.276-.049-.548-.149-.818a2.26 2.26 0 0 0-.422-.72c-.176-.2-.398-.358-.668-.475-.264-.123-.571-.184-.923-.184zm-6.635 3.322a7.93 7.93 0 0 1-.097 1.257c-.065.398-.158.767-.281 1.107a4.35 4.35 0 0 1-.563 1.099c-.234.328-.516.6-.844.817a3.11 3.11 0 0 1-.887.404 3.55 3.55 0 0 1-1.055.15 3.7 3.7 0 0 1-1.055-.141 2.81 2.81 0 0 1-.852-.413 4.46 4.46 0 0 1-.369-.299 4.76 4.76 0 0 1-.326-.36l-.096 1.037h-1.899v-13.5h2.101v4.922c.123-.152.258-.29.404-.413a2.93 2.93 0 0 1 .475-.325 2.73 2.73 0 0 1 .729-.273c.27-.064.56-.097.87-.097a3.6 3.6 0 0 1 1.125.167 3.15 3.15 0 0 1 .932.457c.234.165.442.367.624.607a4.27 4.27 0 0 1 .492.773 5.44 5.44 0 0 1 .422 1.31 7.49 7.49 0 0 1 .15 1.529v.185zm-2.101-.185c0-.269-.018-.53-.053-.782-.029-.258-.073-.498-.132-.721-.082-.269-.19-.512-.325-.729-.129-.223-.305-.41-.527-.563a1.61 1.61 0 0 0-.501-.237c-.188-.053-.399-.079-.633-.079-.287 0-.545.041-.773.123a1.74 1.74 0 0 0-.598.334 1.96 1.96 0 0 0-.334.351c-.094.129-.176.27-.246.422v3.938a2.63 2.63 0 0 0 .29.483c.117.141.249.267.395.378.164.117.352.211.563.281.217.065.457.097.721.097.24 0 .457-.029.65-.088s.366-.149.519-.255a1.75 1.75 0 0 0 .501-.553 2.89 2.89 0 0 0 .307-.765 4.49 4.49 0 0 0 .132-.686c.029-.246.044-.501.044-.764v-.185zm-15.873-4.667l.061 1.046c.182-.381.431-.68.747-.896.323-.217.709-.326 1.161-.326a2.32 2.32 0 0 1 .632.08 1.28 1.28 0 0 1 .484.246 1.38 1.38 0 0 1 .281.298 1.78 1.78 0 0 1 .211.387 2.54 2.54 0 0 1 .281-.378c.106-.117.22-.217.343-.299.158-.105.334-.187.527-.246.2-.058.416-.088.651-.088.304 0 .583.053.835.159a1.71 1.71 0 0 1 .668.465c.187.223.331.513.43.871.106.351.159.776.159 1.274V306H521v-6.935a1.58 1.58 0 0 0-.062-.474.82.82 0 0 0-.175-.325c-.076-.077-.17-.132-.282-.167-.105-.036-.222-.053-.351-.053a1.04 1.04 0 0 0-.352.053.84.84 0 0 0-.263.149c-.071.059-.129.129-.176.211-.047.076-.082.164-.106.264v.088.131V306h-1.898v-6.943c0-.188-.021-.346-.062-.475-.035-.135-.09-.24-.167-.316s-.167-.132-.272-.167a1.01 1.01 0 0 0-.343-.053c-.14 0-.266.02-.378.061a.7.7 0 0 0-.272.167c-.059.053-.112.115-.158.185a1.87 1.87 0 0 0-.115.237V306h-1.933v-9.51h1.828zm-5.775 9.51l-.123-1.327c-.322.474-.714.847-1.177 1.116s-.982.396-1.556.396c-.492 0-.943-.077-1.353-.229a2.7 2.7 0 0 1-1.046-.729c-.287-.329-.51-.748-.668-1.257-.159-.516-.238-1.131-.238-1.846v-5.634h2.101v5.652c0 .439.032.808.097 1.107.064.293.167.527.307.703.141.182.32.311.536.387s.472.114.765.114a3.13 3.13 0 0 0 .817-.097c.241-.07.452-.164.633-.281.153-.105.287-.228.405-.369s.216-.308.298-.483v-6.733h2.11V306h-1.908zm-8.833 0h-2.118l-4.157-8.807-.009 8.807h-2.135v-12.797h2.144l4.131 8.772.018-8.772h2.126V306zm-14.581.176c-.703 0-1.347-.117-1.933-.352-.58-.234-1.078-.559-1.494-.975s-.739-.894-.967-1.451a4.89 4.89 0 0 1-.334-1.819v-.36c0-.744.117-1.418.351-2.022s.557-1.119.967-1.547a4.27 4.27 0 0 1 1.424-.984c.545-.234 1.125-.352 1.74-.352.686 0 1.292.118 1.82.352a3.68 3.68 0 0 1 1.327.958 4.18 4.18 0 0 1 .808 1.485c.182.575.273 1.202.273 1.881v.906h-6.592v.043c.065.416.164.765.299 1.046s.319.534.554.756c.234.235.509.416.826.545a2.81 2.81 0 0 0 1.054.193c.522 0 1.008-.099 1.459-.298.452-.205.824-.495 1.117-.87l1.125 1.089c-.317.457-.803.868-1.459 1.231s-1.439.545-2.365.545zm-.254-8.156a2.07 2.07 0 0 0-1.512.624c-.199.205-.366.451-.501.738s-.235.612-.299.975h4.474v-.14c0-.276-.05-.548-.15-.818a2.19 2.19 0 0 0-.422-.72c-.175-.2-.398-.358-.668-.475-.263-.123-.571-.184-.922-.184zm-15.267 3.155c0-.721.088-1.377.264-1.969.175-.598.43-1.11.764-1.538a3.5 3.5 0 0 1 1.204-.993c.475-.24 1.008-.361 1.6-.361.352 0 .671.039.958.115.287.07.548.175.782.316.153.088.296.193.431.317.135.117.261.246.378.386l.088-.958h1.907v9.246c0 .639-.106 1.204-.317 1.697-.205.498-.495.92-.87 1.265s-.838.598-1.371.774c-.527.181-1.11.272-1.749.272a4.95 4.95 0 0 1-.887-.088c-.323-.058-.645-.149-.967-.272a4.45 4.45 0 0 1-.923-.484c-.293-.199-.545-.439-.756-.72l.993-1.275c.17.205.352.381.545.528a3.2 3.2 0 0 0 .607.369c.205.094.413.161.624.202.211.047.424.07.641.07.375 0 .706-.053.993-.158a2.05 2.05 0 0 0 .747-.457 1.92 1.92 0 0 0 .431-.712c.106-.281.158-.601.158-.958v-.659c-.123.129-.252.249-.386.36a2.32 2.32 0 0 1-.422.29c-.229.129-.481.226-.756.29-.276.071-.574.106-.897.106-.586 0-1.113-.12-1.582-.361a3.66 3.66 0 0 1-1.204-1.019c-.328-.428-.583-.935-.764-1.521s-.264-1.23-.264-1.916v-.184zm2.109.184a5.59 5.59 0 0 0 .123 1.196c.088.375.226.7.413.975.182.287.414.513.695.677.281.158.615.237 1.002.237.24 0 .457-.026.65-.079.199-.053.378-.126.536-.219.158-.1.299-.22.422-.361a2.62 2.62 0 0 0 .325-.466v-4.166a2.13 2.13 0 0 0-.342-.474 1.93 1.93 0 0 0-.449-.361c-.152-.082-.322-.146-.509-.193-.188-.053-.393-.079-.616-.079-.392 0-.729.082-1.01.246s-.513.39-.695.677a3.21 3.21 0 0 0-.413 1.002c-.088.375-.132.776-.132 1.204v.184zM466.288 306a1.78 1.78 0 0 1-.158-.422l-.097-.527c-.146.152-.313.299-.501.439-.181.135-.386.252-.615.352a3.72 3.72 0 0 1-.738.246c-.264.058-.548.088-.853.088-.492 0-.943-.071-1.353-.211-.405-.147-.75-.346-1.037-.598a2.6 2.6 0 0 1-.686-.888 2.73 2.73 0 0 1-.237-1.133c0-.522.102-.982.307-1.38a2.68 2.68 0 0 1 .914-1.002c.37-.246.824-.434 1.363-.563.545-.129 1.16-.193 1.845-.193h1.53v-.642a1.64 1.64 0 0 0-.132-.668 1.44 1.44 0 0 0-.361-.518c-.169-.147-.377-.258-.624-.334-.24-.082-.518-.123-.834-.123-.288 0-.54.035-.756.105s-.387.167-.528.29a1.05 1.05 0 0 0-.316.413c-.065.159-.097.329-.097.51h-2.109c.006-.381.097-.747.272-1.098a2.76 2.76 0 0 1 .774-.932c.328-.275.732-.492 1.213-.65.486-.165 1.04-.247 1.661-.247.556 0 1.075.071 1.555.211.487.135.906.337 1.257.607a2.8 2.8 0 0 1 .826 1.028c.2.41.299.885.299 1.424v4.228c0 .427.03.814.088 1.16.065.34.155.632.273.879V306h-2.145zm-2.558-1.512a2.66 2.66 0 0 0 .765-.105c.24-.071.457-.161.651-.273a2.35 2.35 0 0 0 .5-.378c.141-.14.25-.287.326-.439v-1.758h-1.354c-.457 0-.852.044-1.186.132-.334.082-.601.202-.8.36a1.3 1.3 0 0 0-.396.484 1.56 1.56 0 0 0-.123.633 1.39 1.39 0 0 0 .106.544 1.15 1.15 0 0 0 .307.422c.135.118.302.211.501.282.2.064.434.096.703.096zm-14.308 5.168V296.49h1.933l.08.976a3.24 3.24 0 0 1 .421-.431 2.83 2.83 0 0 1 .493-.334 3.03 3.03 0 0 1 .755-.281c.276-.07.569-.106.879-.106.61 0 1.146.118 1.609.352a3.26 3.26 0 0 1 1.178.993c.31.428.547.941.711 1.538s.247 1.245.247 1.96v.185c0 .685-.082 1.324-.247 1.916-.158.592-.395 1.101-.711 1.529a3.43 3.43 0 0 1-1.169 1.02c-.463.246-.994.369-1.591.369-.34 0-.654-.035-.941-.106a3.17 3.17 0 0 1-.782-.307c-.141-.082-.275-.176-.404-.282s-.249-.219-.361-.342v4.517h-2.1zm6.205-8.499c0-.428-.044-.829-.132-1.204-.082-.381-.211-.712-.387-.993a2.04 2.04 0 0 0-.694-.668c-.281-.164-.618-.246-1.011-.246-.216 0-.419.023-.606.07a1.82 1.82 0 0 0-.501.202 1.75 1.75 0 0 0-.448.352 2.54 2.54 0 0 0-.326.475v4.227a2.12 2.12 0 0 0 .299.448c.117.135.252.252.405.352a2.29 2.29 0 0 0 .536.228 2.56 2.56 0 0 0 .659.079c.392 0 .726-.082 1.002-.246.281-.17.51-.398.685-.685.182-.293.314-.627.396-1.002a5.71 5.71 0 0 0 .123-1.204v-.185z" class="D"/><path d="M214 279h-4v-52a2 2 0 1 1 4 0v52z" class="C"/><path d="M149 285a6 6 0 0 1 6-6h111a6 6 0 0 1 6 6v28a6 6 0 0 1-6 6H155a6 6 0 0 1-6-6v-28z" class="B"/><path d="M254.138 306.176c-.703 0-1.348-.117-1.934-.352-.58-.234-1.078-.559-1.494-.975a4.38 4.38 0 0 1-.967-1.451 4.91 4.91 0 0 1-.334-1.819v-.36c0-.744.117-1.418.352-2.022s.556-1.119.967-1.547.884-.755 1.423-.984c.545-.234 1.125-.352 1.741-.352.685 0 1.292.118 1.819.352a3.67 3.67 0 0 1 1.327.958c.358.416.627.911.809 1.485a6.2 6.2 0 0 1 .272 1.881v.906h-6.592v.043c.065.416.164.765.299 1.046a2.56 2.56 0 0 0 .554.756c.234.235.51.416.826.545.322.129.674.193 1.055.193.521 0 1.008-.099 1.459-.298a2.93 2.93 0 0 0 1.116-.87l1.125 1.089c-.316.457-.803.868-1.459 1.231-.65.363-1.439.545-2.364.545zm-.255-8.156c-.299 0-.577.055-.835.167a2.07 2.07 0 0 0-.677.457c-.199.205-.366.451-.501.738s-.234.612-.299.975h4.474v-.14a2.36 2.36 0 0 0-.149-.818c-.1-.275-.241-.515-.422-.72-.176-.2-.399-.358-.668-.475-.264-.123-.572-.184-.923-.184zm-15.267 3.155c0-.721.088-1.377.264-1.969.176-.598.431-1.11.765-1.538a3.49 3.49 0 0 1 2.803-1.354c.352 0 .671.039.958.115.287.07.548.175.782.316.153.088.296.193.431.317.135.117.261.246.378.386l.088-.958h1.907v9.246c0 .639-.105 1.204-.316 1.697-.205.498-.495.92-.87 1.265-.381.34-.838.598-1.371.774-.528.181-1.111.272-1.749.272-.27 0-.566-.029-.888-.088a5.47 5.47 0 0 1-.967-.272 4.45 4.45 0 0 1-.923-.484c-.293-.199-.545-.439-.756-.72l.994-1.275c.169.205.351.381.544.528.2.152.402.275.607.369s.413.161.624.202a2.94 2.94 0 0 0 .641.07c.376 0 .707-.053.994-.158a2.05 2.05 0 0 0 .747-.457 1.93 1.93 0 0 0 .43-.712c.106-.281.159-.601.159-.958v-.659c-.123.129-.252.249-.387.36a2.32 2.32 0 0 1-.422.29c-.229.129-.48.226-.756.29a3.58 3.58 0 0 1-.896.106c-.586 0-1.114-.12-1.582-.361a3.65 3.65 0 0 1-1.204-1.019c-.329-.428-.583-.935-.765-1.521-.176-.591-.264-1.23-.264-1.916v-.184zm2.11.184a5.59 5.59 0 0 0 .123 1.196c.088.375.225.7.413.975.181.287.413.513.694.677.281.158.615.237 1.002.237.24 0 .457-.026.65-.079.2-.053.378-.126.537-.219a1.91 1.91 0 0 0 .421-.361 2.64 2.64 0 0 0 .326-.466v-4.166c-.094-.175-.208-.334-.343-.474-.129-.141-.278-.261-.448-.361a2.22 2.22 0 0 0-.51-.193 2.26 2.26 0 0 0-.615-.079c-.393 0-.73.082-1.011.246s-.513.39-.694.677c-.188.287-.326.621-.414 1.002-.087.375-.131.776-.131 1.204v.184zM234.151 306a1.78 1.78 0 0 1-.158-.422l-.097-.527c-.146.152-.313.299-.5.439-.182.135-.387.252-.616.352-.228.105-.474.187-.738.246s-.548.088-.853.088c-.492 0-.943-.071-1.353-.211-.404-.147-.75-.346-1.037-.598a2.6 2.6 0 0 1-.686-.888 2.73 2.73 0 0 1-.237-1.133c0-.522.103-.982.308-1.38.211-.404.515-.738.914-1.002.369-.246.823-.434 1.362-.563.545-.129 1.16-.193 1.846-.193h1.529v-.642a1.64 1.64 0 0 0-.132-.668 1.45 1.45 0 0 0-.36-.518c-.17-.147-.378-.258-.624-.334-.24-.082-.519-.123-.835-.123-.287 0-.539.035-.756.105-.211.071-.387.167-.527.29-.141.112-.247.249-.317.413-.064.159-.096.329-.096.51h-2.11a2.51 2.51 0 0 1 .273-1.098c.175-.352.433-.663.773-.932.328-.275.732-.492 1.213-.65.486-.165 1.04-.247 1.661-.247.557 0 1.075.071 1.556.211s.905.337 1.257.607a2.79 2.79 0 0 1 .826 1.028c.199.41.299.885.299 1.424v4.228c0 .427.029.814.087 1.16.065.34.156.632.273.879V306h-2.145zm-2.557-1.512c.275 0 .53-.035.764-.105.241-.071.457-.161.651-.273s.36-.237.501-.378a1.7 1.7 0 0 0 .325-.439v-1.758h-1.354c-.457 0-.852.044-1.186.132-.334.082-.601.202-.8.36-.176.135-.307.296-.395.484a1.56 1.56 0 0 0-.123.633 1.41 1.41 0 0 0 .105.544 1.14 1.14 0 0 0 .308.422c.134.118.301.211.501.282.199.064.433.096.703.096zm-12.112-3.366V306h-2.109v-12.797h4.28c.645.006 1.237.103 1.776.29.545.188 1.013.454 1.406.8a3.57 3.57 0 0 1 .914 1.257c.217.492.325 1.046.325 1.661a3.86 3.86 0 0 1-.325 1.608 3.54 3.54 0 0 1-.914 1.222c-.393.346-.861.612-1.406.8-.539.187-1.131.281-1.776.281h-2.171zm0-1.723h2.171c.358-.005.677-.061.958-.167.287-.111.531-.263.73-.457s.348-.421.448-.685a2.29 2.29 0 0 0 .158-.861 2.55 2.55 0 0 0-.158-.923c-.1-.282-.249-.525-.448-.73s-.443-.363-.73-.474c-.281-.112-.6-.17-.958-.176h-2.171v4.473zm-8.806-5.229v2.32h3.577v1.573h-3.577v4.544c0 .352.041.648.123.888.088.234.208.419.36.554a1.32 1.32 0 0 0 .545.299 2.61 2.61 0 0 0 .694.088l.563-.027.562-.07.493-.079.395-.088.229 1.45c-.153.094-.337.176-.554.246-.211.065-.44.12-.686.167s-.504.082-.773.106a7.23 7.23 0 0 1-.791.044c-.481 0-.923-.065-1.327-.194a2.68 2.68 0 0 1-1.029-.624c-.287-.275-.512-.63-.676-1.063-.158-.434-.238-.955-.238-1.565v-4.676h-2.302v-1.573h2.302v-2.32h2.11zm-8.816 9.255a.85.85 0 0 0-.114-.44c-.07-.129-.19-.252-.36-.369-.182-.105-.419-.205-.712-.299s-.659-.181-1.099-.263c-.551-.112-1.054-.249-1.512-.413-.451-.164-.84-.364-1.168-.598-.323-.223-.575-.486-.756-.791s-.273-.659-.273-1.064c0-.386.091-.752.273-1.098.187-.352.454-.659.799-.923s.75-.472 1.231-.624a5.4 5.4 0 0 1 1.617-.229c.633 0 1.201.08 1.705.238.504.152.932.363 1.283.633s.613.588.8.958a2.61 2.61 0 0 1 .281 1.195h-2.1a1.14 1.14 0 0 0-.114-.501c-.071-.164-.176-.311-.317-.44-.164-.152-.375-.272-.633-.36-.257-.094-.559-.141-.905-.141-.316 0-.595.036-.835.106-.234.064-.428.155-.58.272a1.06 1.06 0 0 0-.343.378.93.93 0 0 0-.114.449c0 .164.032.313.097.448.064.129.178.243.343.343.152.105.363.202.632.29a7.68 7.68 0 0 0 1.037.237c.581.105 1.111.234 1.591.387s.891.34 1.231.562c.34.235.603.51.791.826s.281.692.281 1.125c0 .422-.1.809-.299 1.16a2.69 2.69 0 0 1-.826.906 4.29 4.29 0 0 1-1.301.589c-.504.14-1.063.211-1.679.211-.685 0-1.294-.091-1.828-.273-.527-.182-.969-.422-1.327-.721-.363-.293-.638-.629-.826-1.01a2.61 2.61 0 0 1-.281-1.16h2.039c.017.292.094.541.228.747a1.67 1.67 0 0 0 .528.483 2.19 2.19 0 0 0 .703.281 4.05 4.05 0 0 0 .8.079 3.52 3.52 0 0 0 .949-.114c.275-.076.495-.179.659-.308.135-.105.234-.219.299-.342a.87.87 0 0 0 .105-.422zm-10.45-7.111c.34 0 .668.024.985.071s.574.102.755.167l-.298 2.074c-.323-.07-.642-.123-.958-.158a8.4 8.4 0 0 0-.932-.053 3.88 3.88 0 0 0-.949.106 2.3 2.3 0 0 0-.747.325 2.07 2.07 0 0 0-.598.536c-.164.217-.302.466-.413.747V306h-2.101v-9.51h1.969l.088 1.319.009.219c.386-.533.849-.952 1.388-1.257.545-.304 1.146-.457 1.802-.457zm-16.901.176h5.045v7.77h2.795V306h-7.84v-1.74h2.927v-6.021h-2.927v-1.749zm2.733-2.461c0-.17.029-.325.088-.466a1.06 1.06 0 0 1 .633-.606 1.4 1.4 0 0 1 .51-.088c.316 0 .571.082.764.246.2.158.314.364.343.615.041.258-.003.484-.132.677a.94.94 0 0 1-.562.378c-.123.111-.27.185-.44.22s-.357.02-.562-.044c-.211-.065-.372-.179-.484-.343-.105-.17-.158-.366-.158-.589zM165.605 306v-7.937h-2.548v-1.573h2.548v-.58c0-.621.094-1.166.282-1.635a3.27 3.27 0 0 1 .817-1.195 3.55 3.55 0 0 1 1.266-.721c.498-.164 1.054-.246 1.67-.246a5.67 5.67 0 0 1 .632.035l.616.071.501.088.518.096-.167 1.679c-.234-.064-.501-.12-.8-.167a6.38 6.38 0 0 0-1.002-.07c-.392 0-.732.047-1.019.14-.281.094-.513.232-.694.413-.17.17-.299.381-.387.633-.082.252-.123.545-.123.879v.58h3.524v1.573h-3.524V306h-2.11z" class="D"/><path d="M803 279h-4v-52a2 2 0 1 1 4 0v52z" class="C"/><path d="M738 285a6 6 0 0 1 6-6h111a6 6 0 0 1 6 6v28a6 6 0 0 1-6 6H744a6 6 0 0 1-6-6v-28z" class="B"/><path d="M837.732 306.176c-.703 0-1.347-.117-1.933-.352-.58-.234-1.078-.559-1.494-.975s-.739-.894-.967-1.451a4.89 4.89 0 0 1-.334-1.819v-.36c0-.744.117-1.418.351-2.022s.557-1.119.967-1.547a4.27 4.27 0 0 1 1.424-.984c.545-.234 1.125-.352 1.74-.352.686 0 1.292.118 1.82.352a3.68 3.68 0 0 1 1.327.958 4.18 4.18 0 0 1 .808 1.485c.182.575.273 1.202.273 1.881v.906h-6.592v.043c.065.416.164.765.299 1.046s.319.534.554.756c.234.235.509.416.826.545a2.81 2.81 0 0 0 1.054.193c.522 0 1.008-.099 1.459-.298.452-.205.824-.495 1.117-.87l1.125 1.089c-.317.457-.803.868-1.459 1.231s-1.439.545-2.365.545zm-.254-8.156a2.07 2.07 0 0 0-1.512.624c-.199.205-.366.451-.501.738s-.235.612-.299.975h4.474v-.14c0-.276-.05-.548-.15-.818a2.19 2.19 0 0 0-.422-.72c-.175-.2-.398-.358-.668-.475-.263-.123-.571-.184-.922-.184zm-15.267 3.155c0-.721.088-1.377.264-1.969.175-.598.43-1.11.764-1.538a3.5 3.5 0 0 1 1.204-.993c.475-.24 1.008-.361 1.6-.361.352 0 .671.039.958.115.287.07.548.175.782.316.153.088.296.193.431.317.135.117.261.246.378.386l.088-.958h1.907v9.246c0 .639-.106 1.204-.316 1.697a3.52 3.52 0 0 1-.871 1.265c-.38.34-.838.598-1.371.774-.527.181-1.11.272-1.749.272a4.95 4.95 0 0 1-.887-.088c-.323-.058-.645-.149-.967-.272a4.45 4.45 0 0 1-.923-.484c-.293-.199-.545-.439-.756-.72l.993-1.275c.17.205.352.381.545.528a3.2 3.2 0 0 0 .607.369c.205.094.413.161.624.202.211.047.424.07.641.07.375 0 .706-.053.993-.158a2.05 2.05 0 0 0 .747-.457 1.92 1.92 0 0 0 .431-.712c.106-.281.158-.601.158-.958v-.659c-.123.129-.252.249-.386.36a2.32 2.32 0 0 1-.422.29c-.229.129-.481.226-.756.29-.276.071-.574.106-.897.106-.586 0-1.113-.12-1.582-.361a3.66 3.66 0 0 1-1.204-1.019c-.328-.428-.583-.935-.764-1.521s-.264-1.23-.264-1.916v-.184zm2.109.184a5.59 5.59 0 0 0 .123 1.196c.088.375.226.7.413.975.182.287.414.513.695.677.281.158.615.237 1.002.237.24 0 .457-.026.65-.079.199-.053.378-.126.536-.219.158-.1.299-.22.422-.361a2.62 2.62 0 0 0 .325-.466v-4.166a2.13 2.13 0 0 0-.342-.474 1.93 1.93 0 0 0-.449-.361c-.152-.082-.322-.146-.509-.193-.188-.053-.393-.079-.616-.079-.392 0-.729.082-1.01.246s-.513.39-.695.677a3.21 3.21 0 0 0-.413 1.002c-.088.375-.132.776-.132 1.204v.184zM817.746 306a1.78 1.78 0 0 1-.158-.422l-.097-.527c-.146.152-.313.299-.501.439-.181.135-.386.252-.615.352a3.72 3.72 0 0 1-.738.246c-.264.058-.548.088-.853.088-.492 0-.943-.071-1.353-.211-.405-.147-.75-.346-1.037-.598a2.6 2.6 0 0 1-.686-.888 2.73 2.73 0 0 1-.237-1.133c0-.522.102-.982.307-1.38a2.68 2.68 0 0 1 .914-1.002c.37-.246.824-.434 1.363-.563.545-.129 1.16-.193 1.845-.193h1.53v-.642a1.64 1.64 0 0 0-.132-.668 1.45 1.45 0 0 0-.36-.518 1.71 1.71 0 0 0-.625-.334c-.24-.082-.518-.123-.834-.123-.288 0-.54.035-.756.105s-.387.167-.528.29a1.05 1.05 0 0 0-.316.413c-.065.159-.097.329-.097.51h-2.109c.006-.381.097-.747.272-1.098a2.76 2.76 0 0 1 .774-.932c.328-.275.732-.492 1.213-.65.486-.165 1.04-.247 1.661-.247.556 0 1.075.071 1.555.211.487.135.906.337 1.257.607a2.8 2.8 0 0 1 .826 1.028c.2.41.299.885.299 1.424v4.228c0 .427.03.814.088 1.16.065.34.155.632.273.879V306h-2.145zm-2.558-1.512a2.66 2.66 0 0 0 .765-.105c.24-.071.457-.161.651-.273a2.35 2.35 0 0 0 .5-.378c.141-.14.25-.287.326-.439v-1.758h-1.354c-.457 0-.852.044-1.186.132-.334.082-.601.202-.8.36a1.3 1.3 0 0 0-.396.484 1.56 1.56 0 0 0-.123.633 1.39 1.39 0 0 0 .106.544 1.15 1.15 0 0 0 .307.422c.135.118.302.211.501.282.2.064.434.096.703.096zm-12.111-3.366V306h-2.109v-12.797h4.28a5.54 5.54 0 0 1 1.775.29c.545.188 1.014.454 1.407.8a3.57 3.57 0 0 1 .914 1.257c.217.492.325 1.046.325 1.661a3.86 3.86 0 0 1-.325 1.608c-.217.475-.522.882-.914 1.222-.393.346-.862.612-1.407.8-.539.187-1.13.281-1.775.281h-2.171zm0-1.723h2.171c.357-.005.677-.061.958-.167.287-.111.53-.263.73-.457s.348-.421.448-.685a2.31 2.31 0 0 0 .158-.861c0-.34-.053-.648-.158-.923-.1-.282-.249-.525-.448-.73s-.443-.363-.73-.474c-.281-.112-.601-.17-.958-.176h-2.171v4.473zm-8.806-5.229v2.32h3.577v1.573h-3.577v4.544c0 .352.041.648.123.888.087.234.208.419.36.554s.334.24.545.299a2.61 2.61 0 0 0 .694.088l.563-.027.562-.07.492-.079.396-.088.228 1.45c-.152.094-.337.176-.553.246s-.44.12-.686.167-.504.082-.773.106l-.791.044c-.481 0-.923-.065-1.327-.194-.399-.135-.742-.343-1.029-.624-.287-.275-.513-.63-.677-1.063-.158-.434-.237-.955-.237-1.565v-4.676h-2.303v-1.573h2.303v-2.32h2.11zm-8.816 9.255a.85.85 0 0 0-.114-.44c-.07-.129-.191-.252-.361-.369-.181-.105-.418-.205-.711-.299s-.66-.181-1.099-.263c-.551-.112-1.055-.249-1.512-.413a4.87 4.87 0 0 1-1.169-.598c-.322-.223-.574-.486-.756-.791s-.272-.659-.272-1.064c0-.386.091-.752.272-1.098.188-.352.455-.659.8-.923s.75-.472 1.231-.624a5.4 5.4 0 0 1 1.617-.229c.633 0 1.201.08 1.705.238.504.152.932.363 1.283.633a2.78 2.78 0 0 1 .8.958c.188.37.281.767.281 1.195h-2.1a1.13 1.13 0 0 0-.115-.501c-.07-.164-.175-.311-.316-.44-.164-.152-.375-.272-.633-.36-.258-.094-.559-.141-.905-.141-.317 0-.595.036-.835.106-.234.064-.428.155-.58.272a1.05 1.05 0 0 0-.343.378.93.93 0 0 0-.114.449 1.03 1.03 0 0 0 .096.448c.065.129.179.243.343.343.153.105.364.202.633.29.275.088.621.167 1.037.237a12.71 12.71 0 0 1 1.591.387c.48.152.891.34 1.23.562.34.235.604.51.791.826s.282.692.282 1.125c0 .422-.1.809-.299 1.16a2.69 2.69 0 0 1-.826.906c-.364.252-.797.448-1.301.589s-1.064.211-1.679.211c-.685 0-1.295-.091-1.828-.273-.527-.182-.97-.422-1.327-.721a2.99 2.99 0 0 1-.826-1.01c-.188-.381-.281-.768-.281-1.16h2.039c.017.292.093.541.228.747a1.68 1.68 0 0 0 .527.483c.206.129.44.223.704.281a4.04 4.04 0 0 0 .799.079c.364 0 .68-.038.95-.114s.495-.179.659-.308c.135-.105.234-.219.299-.342a.87.87 0 0 0 .105-.422zM774.504 306a1.74 1.74 0 0 1-.158-.422l-.097-.527c-.146.152-.313.299-.501.439-.182.135-.387.252-.615.352a3.72 3.72 0 0 1-.738.246c-.264.058-.548.088-.853.088-.492 0-.943-.071-1.354-.211-.404-.147-.75-.346-1.037-.598a2.6 2.6 0 0 1-.685-.888 2.73 2.73 0 0 1-.237-1.133c0-.522.102-.982.307-1.38a2.68 2.68 0 0 1 .914-1.002c.369-.246.823-.434 1.362-.563.545-.129 1.161-.193 1.846-.193h1.53v-.642a1.64 1.64 0 0 0-.132-.668 1.44 1.44 0 0 0-.361-.518c-.17-.147-.378-.258-.624-.334a2.58 2.58 0 0 0-.835-.123c-.287 0-.539.035-.756.105-.21.071-.386.167-.527.29a1.04 1.04 0 0 0-.316.413c-.065.159-.097.329-.097.51h-2.109a2.51 2.51 0 0 1 .272-1.098c.176-.352.434-.663.774-.932a3.63 3.63 0 0 1 1.212-.65c.487-.165 1.04-.247 1.662-.247.556 0 1.075.071 1.555.211.487.135.906.337 1.257.607a2.8 2.8 0 0 1 .826 1.028c.199.41.299.885.299 1.424v4.228a6.94 6.94 0 0 0 .088 1.16c.064.34.155.632.272.879V306h-2.144zm-2.558-1.512a2.66 2.66 0 0 0 .765-.105c.24-.071.457-.161.65-.273s.361-.237.501-.378a1.71 1.71 0 0 0 .326-.439v-1.758h-1.354c-.457 0-.853.044-1.187.132-.334.082-.6.202-.799.36a1.3 1.3 0 0 0-.396.484 1.56 1.56 0 0 0-.123.633 1.39 1.39 0 0 0 .106.544 1.14 1.14 0 0 0 .307.422c.135.118.302.211.501.282.199.064.434.096.703.096zM758.024 292.5h5.124v11.76h2.883V306h-8.007v-1.74h3.006v-10.011h-3.006V292.5z" class="D"/><path d="M287 175l-.011.204a2 2 0 0 1-3.978 0L283 175V40h4v135z" class="C"/><path d="M173 6a6 6 0 0 1 6-6h211a6 6 0 0 1 6 6v28a6 6 0 0 1-6 6H179a6 6 0 0 1-6-6V6z" class="B"/><path d="M376.785 27.176c-.703 0-1.347-.117-1.933-.352a4.43 4.43 0 0 1-1.495-.976 4.3 4.3 0 0 1-.966-1.45 4.89 4.89 0 0 1-.334-1.819v-.36c0-.744.117-1.418.351-2.022s.557-1.119.967-1.547.885-.756 1.424-.984c.545-.234 1.125-.352 1.74-.352.686 0 1.292.117 1.819.352.528.229.97.548 1.328.958.357.416.626.911.808 1.485s.273 1.201.273 1.881v.905h-6.592v.044c.064.416.164.765.299 1.046s.319.533.553.756a2.48 2.48 0 0 0 .827.545 2.81 2.81 0 0 0 1.054.193 3.57 3.57 0 0 0 1.459-.299 2.93 2.93 0 0 0 1.116-.87l1.125 1.09c-.316.457-.802.867-1.459 1.23-.65.363-1.438.545-2.364.545zm-.255-8.156a2.09 2.09 0 0 0-.835.167 2.1 2.1 0 0 0-.676.457 2.65 2.65 0 0 0-.501.738 3.86 3.86 0 0 0-.299.976h4.473v-.141a2.33 2.33 0 0 0-.149-.817 2.21 2.21 0 0 0-.422-.721 1.88 1.88 0 0 0-.668-.475c-.264-.123-.571-.185-.923-.185zm-15.266 3.155c0-.721.088-1.377.263-1.969.176-.598.431-1.11.765-1.538a3.49 3.49 0 0 1 1.204-.993c.475-.24 1.008-.36 1.6-.36.351 0 .671.038.958.114.287.07.548.176.782.316a2.49 2.49 0 0 1 .431.316 3.51 3.51 0 0 1 .378.387l.087-.958h1.908v9.246c0 .639-.106 1.204-.317 1.696a3.52 3.52 0 0 1-.87 1.266 3.82 3.82 0 0 1-1.371.773 5.33 5.33 0 0 1-1.749.272 4.96 4.96 0 0 1-.888-.088 5.42 5.42 0 0 1-.966-.272c-.323-.123-.63-.284-.923-.483a3.16 3.16 0 0 1-.756-.721l.993-1.274a3.31 3.31 0 0 0 .545.527c.199.152.401.275.606.369a2.77 2.77 0 0 0 .624.202 2.95 2.95 0 0 0 .642.07 2.87 2.87 0 0 0 .993-.158 2.05 2.05 0 0 0 .747-.457c.188-.193.331-.431.431-.712.105-.281.158-.601.158-.958v-.659a4.43 4.43 0 0 1-.387.36 2.34 2.34 0 0 1-.422.29c-.228.129-.48.226-.755.29a3.64 3.64 0 0 1-.897.105c-.586 0-1.113-.12-1.582-.36a3.64 3.64 0 0 1-1.204-1.02c-.328-.428-.583-.935-.765-1.52-.175-.592-.263-1.231-.263-1.916v-.185zm2.109.185c0 .422.041.82.123 1.195.088.375.226.7.413.976.182.287.413.513.695.677.281.158.615.237 1.001.237.241 0 .457-.026.651-.079a2.1 2.1 0 0 0 .536-.22 1.94 1.94 0 0 0 .422-.36 2.66 2.66 0 0 0 .325-.466v-4.166a2.14 2.14 0 0 0-.343-.475 1.92 1.92 0 0 0-.448-.36c-.152-.082-.322-.146-.51-.193a2.26 2.26 0 0 0-.615-.079c-.393 0-.729.082-1.011.246a2.02 2.02 0 0 0-.694.677c-.188.287-.325.621-.413 1.002a5.26 5.26 0 0 0-.132 1.204v.185zM356.799 27a1.74 1.74 0 0 1-.158-.422l-.097-.527c-.147.152-.314.299-.501.439a3.14 3.14 0 0 1-.615.352 3.65 3.65 0 0 1-.739.246 3.89 3.89 0 0 1-.852.088c-.492 0-.943-.07-1.354-.211-.404-.146-.75-.346-1.037-.598a2.6 2.6 0 0 1-.685-.888c-.158-.352-.238-.73-.238-1.134 0-.521.103-.981.308-1.38a2.68 2.68 0 0 1 .914-1.002c.369-.246.823-.434 1.362-.562.545-.129 1.161-.193 1.846-.193h1.529v-.642c0-.246-.044-.469-.131-.668s-.203-.372-.361-.518c-.17-.146-.378-.258-.624-.334a2.58 2.58 0 0 0-.835-.123c-.287 0-.539.035-.756.105a1.52 1.52 0 0 0-.527.29c-.141.111-.246.249-.316.413a1.33 1.33 0 0 0-.097.51h-2.109a2.5 2.5 0 0 1 .272-1.099 2.78 2.78 0 0 1 .773-.932c.329-.275.733-.492 1.213-.65.487-.164 1.04-.246 1.662-.246a5.5 5.5 0 0 1 1.555.211c.487.135.905.337 1.257.606s.627.612.826 1.028c.199.41.299.885.299 1.424v4.227c0 .428.029.815.088 1.16a3.6 3.6 0 0 0 .272.879V27h-2.144zm-2.558-1.512c.276 0 .53-.035.765-.105s.457-.161.65-.272a2.36 2.36 0 0 0 .501-.378 1.69 1.69 0 0 0 .325-.439v-1.758h-1.353c-.457 0-.853.044-1.187.132-.334.082-.6.202-.799.36a1.3 1.3 0 0 0-.396.483c-.082.188-.123.398-.123.633a1.42 1.42 0 0 0 .105.545 1.16 1.16 0 0 0 .308.422c.135.117.302.211.501.281a2.29 2.29 0 0 0 .703.097zm-12.111-3.366V27h-2.109V14.203h4.28c.644.006 1.236.103 1.775.29.545.188 1.014.454 1.406.8a3.57 3.57 0 0 1 .914 1.257c.216.492.326 1.046.326 1.661a3.86 3.86 0 0 1-.326 1.608 3.53 3.53 0 0 1-.914 1.222c-.392.346-.861.612-1.406.8-.539.188-1.131.281-1.775.281h-2.171zm0-1.723h2.171a2.84 2.84 0 0 0 .958-.167c.287-.111.53-.264.729-.457s.349-.422.449-.686.158-.551.158-.861c0-.34-.053-.647-.158-.923a1.98 1.98 0 0 0-.449-.73c-.2-.205-.442-.363-.729-.475a2.72 2.72 0 0 0-.958-.176h-2.171v4.474zm-6.812 4.026a.85.85 0 0 0-.114-.439c-.07-.129-.19-.252-.36-.369-.182-.105-.419-.205-.712-.299a9.23 9.23 0 0 0-1.099-.264c-.551-.111-1.054-.249-1.512-.413a4.85 4.85 0 0 1-1.168-.598c-.323-.223-.575-.486-.756-.791s-.273-.659-.273-1.063c0-.387.091-.753.273-1.099a2.84 2.84 0 0 1 .799-.923c.34-.264.75-.472 1.231-.624s1.025-.229 1.617-.229c.633 0 1.201.079 1.705.237.504.152.932.363 1.283.633s.613.589.8.958a2.61 2.61 0 0 1 .281 1.195h-2.1a1.14 1.14 0 0 0-.114-.501 1.28 1.28 0 0 0-.317-.439 1.74 1.74 0 0 0-.633-.36c-.257-.094-.559-.141-.905-.141a2.98 2.98 0 0 0-.835.105c-.234.064-.428.155-.58.272a1.05 1.05 0 0 0-.343.378.93.93 0 0 0-.114.448c0 .164.032.314.097.448s.178.243.343.343c.152.105.363.202.632.29a7.68 7.68 0 0 0 1.037.237c.581.105 1.111.234 1.591.387s.891.34 1.231.563c.34.234.603.51.791.826s.281.691.281 1.125c0 .422-.1.809-.299 1.16-.193.352-.469.653-.826.905a4.29 4.29 0 0 1-1.301.589 6.22 6.22 0 0 1-1.678.211c-.686 0-1.295-.091-1.829-.273-.527-.182-.969-.422-1.327-.721-.363-.293-.638-.63-.826-1.011s-.281-.768-.281-1.16h2.039a1.5 1.5 0 0 0 .228.747 1.67 1.67 0 0 0 .528.483 2.19 2.19 0 0 0 .703.281 4.05 4.05 0 0 0 .8.079 3.52 3.52 0 0 0 .949-.114c.27-.076.495-.179.659-.308.135-.105.234-.22.299-.343a.87.87 0 0 0 .105-.422zM324.525 27l-.123-1.327c-.322.475-.714.847-1.177 1.116a3.09 3.09 0 0 1-1.556.395c-.492 0-.943-.076-1.354-.229a2.7 2.7 0 0 1-1.045-.729c-.288-.328-.51-.747-.668-1.257-.159-.516-.238-1.131-.238-1.846V17.49h2.101v5.651c0 .439.032.809.097 1.107s.167.527.307.703a1.14 1.14 0 0 0 .536.387c.217.076.472.114.765.114a3.13 3.13 0 0 0 .817-.097 2.4 2.4 0 0 0 .633-.281c.152-.105.287-.229.404-.369a2.35 2.35 0 0 0 .299-.483V17.49h2.11V27h-1.908zm-17.428-4.843c0-.691.099-1.33.299-1.916.199-.592.489-1.104.87-1.538a3.95 3.95 0 0 1 1.38-1.02c.545-.247 1.166-.369 1.863-.369s1.318.123 1.863.369c.551.246 1.017.586 1.398 1.02.375.434.662.946.861 1.538.199.586.299 1.225.299 1.916v.185c0 .697-.1 1.339-.299 1.925s-.486 1.096-.861 1.529-.838.773-1.389 1.02c-.545.246-1.163.369-1.855.369s-1.321-.123-1.872-.369-1.013-.586-1.388-1.02c-.381-.434-.671-.943-.87-1.529a5.95 5.95 0 0 1-.299-1.925v-.185zm2.1.185c0 .428.044.832.132 1.213.094.381.237.715.431 1.002.187.287.428.516.72.686.293.164.642.246 1.046.246.393 0 .736-.082 1.029-.246a2.11 2.11 0 0 0 .72-.686c.187-.288.326-.621.413-1.002.094-.381.141-.785.141-1.213v-.185a4.97 4.97 0 0 0-.141-1.195c-.093-.381-.231-.715-.413-1.002a2.2 2.2 0 0 0-.729-.686c-.287-.17-.633-.255-1.037-.255s-.744.085-1.037.255a2.14 2.14 0 0 0-.712.686c-.194.287-.337.621-.431 1.002-.088.381-.132.779-.132 1.195v.185zm-12.041-4.852h5.045v7.77h2.795V27h-7.84v-1.74h2.927v-6.02h-2.927v-1.75zm2.734-2.461c0-.17.029-.325.088-.466.058-.146.143-.272.254-.378a1.08 1.08 0 0 1 .378-.228c.153-.059.323-.088.51-.088.317 0 .571.082.765.246a.89.89 0 0 1 .343.615c.041.258-.003.483-.132.677-.129.188-.317.314-.563.378a.92.92 0 0 1-.439.22 1.11 1.11 0 0 1-.563-.044c-.211-.064-.372-.179-.483-.343a1.09 1.09 0 0 1-.158-.589zM288.974 27l-3.745-9.51h2.18l2.356 6.899.14.633.141-.633 2.329-6.899h2.18L290.828 27h-1.854zm-9.484.176c-.703 0-1.347-.117-1.933-.352a4.45 4.45 0 0 1-1.495-.976 4.3 4.3 0 0 1-.966-1.45 4.89 4.89 0 0 1-.334-1.819v-.36c0-.744.117-1.418.351-2.022s.557-1.119.967-1.547.885-.756 1.424-.984c.545-.234 1.125-.352 1.74-.352.686 0 1.292.117 1.819.352.528.229.97.548 1.328.958a4.18 4.18 0 0 1 .808 1.485c.182.574.273 1.201.273 1.881v.905h-6.592v.044c.064.416.164.765.299 1.046s.319.533.553.756a2.48 2.48 0 0 0 .827.545 2.81 2.81 0 0 0 1.054.193 3.57 3.57 0 0 0 1.459-.299c.451-.205.824-.495 1.116-.87l1.125 1.09c-.316.457-.802.867-1.459 1.23-.65.363-1.438.545-2.364.545zm-.255-8.156c-.298 0-.577.056-.835.167a2.1 2.1 0 0 0-.676.457 2.65 2.65 0 0 0-.501.738 3.86 3.86 0 0 0-.299.976h4.473v-.141a2.33 2.33 0 0 0-.149-.817 2.21 2.21 0 0 0-.422-.721 1.88 1.88 0 0 0-.668-.475 2.16 2.16 0 0 0-.923-.185zm-8.42-1.705a6.72 6.72 0 0 1 .985.07c.322.047.574.103.756.167l-.299 2.074a9.37 9.37 0 0 0-.958-.158 8.27 8.27 0 0 0-.932-.053c-.351 0-.668.035-.949.105a2.34 2.34 0 0 0-.747.325 2.1 2.1 0 0 0-.598.536c-.164.217-.302.466-.413.747V27h-2.1v-9.51h1.968l.088 1.318.009.22a4.36 4.36 0 0 1 1.389-1.257c.545-.305 1.145-.457 1.801-.457zm-15.169 4.807V27h-2.11V14.203h4.28a5.53 5.53 0 0 1 1.776.29c.545.188 1.013.454 1.406.8a3.57 3.57 0 0 1 .914 1.257c.217.492.325 1.046.325 1.661a3.86 3.86 0 0 1-.325 1.608 3.54 3.54 0 0 1-.914 1.222c-.393.346-.861.612-1.406.8-.539.188-1.131.281-1.776.281h-2.17zm0-1.723h2.17c.358-.006.677-.061.958-.167a2.14 2.14 0 0 0 .73-.457 1.85 1.85 0 0 0 .448-.686 2.29 2.29 0 0 0 .158-.861 2.55 2.55 0 0 0-.158-.923 1.98 1.98 0 0 0-.448-.73 2.01 2.01 0 0 0-.73-.475c-.281-.111-.6-.17-.958-.176h-2.17v4.474zm-11.831-2.909l.062 1.046a2.22 2.22 0 0 1 .747-.896c.322-.217.709-.325 1.16-.325.235 0 .445.026.633.079a1.3 1.3 0 0 1 .483.246c.106.082.2.182.282.299a1.75 1.75 0 0 1 .211.387 2.49 2.49 0 0 1 .281-.378 1.81 1.81 0 0 1 .343-.299 1.98 1.98 0 0 1 .527-.246 2.3 2.3 0 0 1 .65-.088 2.14 2.14 0 0 1 .835.158 1.7 1.7 0 0 1 .668.466c.188.223.331.513.431.87s.158.776.158 1.274V27h-1.933v-6.935a1.58 1.58 0 0 0-.062-.475.82.82 0 0 0-.176-.325.68.68 0 0 0-.281-.167 1.11 1.11 0 0 0-.352-.053c-.134 0-.252.018-.351.053a.83.83 0 0 0-.264.149c-.07.059-.129.129-.176.211a.9.9 0 0 0-.105.264v.088.132V27h-1.898v-6.943a1.58 1.58 0 0 0-.062-.475.68.68 0 0 0-.167-.316.69.69 0 0 0-.272-.167 1.03 1.03 0 0 0-.343-.053 1.11 1.11 0 0 0-.378.061.69.69 0 0 0-.273.167c-.058.053-.111.114-.158.185-.041.07-.079.149-.114.237V27h-1.934v-9.51h1.828zm-12.392 4.667c0-.691.099-1.33.299-1.916.199-.592.489-1.104.87-1.538a3.95 3.95 0 0 1 1.38-1.02c.545-.247 1.166-.369 1.863-.369s1.318.123 1.863.369c.551.246 1.017.586 1.398 1.02.375.434.662.946.861 1.538.199.586.299 1.225.299 1.916v.185c0 .697-.1 1.339-.299 1.925s-.486 1.096-.861 1.529-.838.773-1.389 1.02c-.545.246-1.163.369-1.854.369-.698 0-1.322-.123-1.873-.369s-1.013-.586-1.388-1.02c-.381-.434-.671-.943-.87-1.529a5.95 5.95 0 0 1-.299-1.925v-.185zm2.1.185c0 .428.044.832.132 1.213a3.12 3.12 0 0 0 .431 1.002 2.12 2.12 0 0 0 .721.686c.293.164.641.246 1.046.246.392 0 .735-.082 1.028-.246a2.12 2.12 0 0 0 .721-.686c.188-.288.325-.621.413-1.002a5.1 5.1 0 0 0 .14-1.213v-.185a5.02 5.02 0 0 0-.14-1.195 3.36 3.36 0 0 0-.413-1.002 2.21 2.21 0 0 0-.73-.686c-.287-.17-.633-.255-1.037-.255-.398 0-.744.085-1.037.255a2.14 2.14 0 0 0-.712.686 3.12 3.12 0 0 0-.431 1.002c-.088.381-.132.779-.132 1.195v.185zm-8.305-7.172v2.32h3.577v1.573h-3.577v4.544c0 .352.041.648.123.888.088.234.208.419.36.554a1.31 1.31 0 0 0 .545.299 2.59 2.59 0 0 0 .694.088l.563-.026.562-.07.493-.079.395-.088.229 1.45c-.153.094-.337.176-.554.246a6.57 6.57 0 0 1-.686.167 7.72 7.72 0 0 1-.773.105 7.23 7.23 0 0 1-.791.044c-.481 0-.923-.064-1.327-.193a2.68 2.68 0 0 1-1.029-.624c-.287-.275-.512-.63-.676-1.064-.158-.434-.238-.955-.238-1.564v-4.676h-2.302V17.49h2.302v-2.32h2.11zm-8.816 9.255a.85.85 0 0 0-.114-.439c-.07-.129-.19-.252-.36-.369-.182-.105-.419-.205-.712-.299a9.23 9.23 0 0 0-1.099-.264 10.79 10.79 0 0 1-1.512-.413 4.85 4.85 0 0 1-1.168-.598c-.323-.223-.575-.486-.756-.791s-.273-.659-.273-1.063c0-.387.091-.753.273-1.099a2.84 2.84 0 0 1 .799-.923c.34-.264.75-.472 1.231-.624s1.025-.229 1.617-.229c.633 0 1.201.079 1.705.237.504.152.932.363 1.283.633s.613.589.8.958a2.61 2.61 0 0 1 .281 1.195h-2.1a1.14 1.14 0 0 0-.114-.501 1.28 1.28 0 0 0-.317-.439 1.74 1.74 0 0 0-.633-.36c-.257-.094-.559-.141-.905-.141a2.98 2.98 0 0 0-.835.105c-.234.064-.428.155-.58.272a1.05 1.05 0 0 0-.343.378.93.93 0 0 0-.114.448c0 .164.032.314.097.448s.178.243.343.343c.152.105.363.202.632.29a7.68 7.68 0 0 0 1.037.237c.581.105 1.111.234 1.591.387s.891.34 1.231.563c.34.234.603.51.791.826s.281.691.281 1.125c0 .422-.1.809-.299 1.16-.193.352-.469.653-.826.905a4.29 4.29 0 0 1-1.301.589c-.504.141-1.063.211-1.679.211-.685 0-1.294-.091-1.828-.273-.527-.182-.969-.422-1.327-.721-.363-.293-.638-.63-.826-1.011s-.281-.768-.281-1.16h2.039a1.5 1.5 0 0 0 .228.747 1.67 1.67 0 0 0 .528.483 2.19 2.19 0 0 0 .703.281 4.05 4.05 0 0 0 .8.079 3.52 3.52 0 0 0 .949-.114c.27-.076.495-.179.659-.308.135-.105.234-.22.299-.343a.87.87 0 0 0 .105-.422zM205.609 27l-.123-1.327c-.322.475-.715.847-1.177 1.116a3.09 3.09 0 0 1-1.556.395c-.492 0-.943-.076-1.354-.229a2.7 2.7 0 0 1-1.045-.729c-.288-.328-.51-.747-.668-1.257-.159-.516-.238-1.131-.238-1.846V17.49h2.101v5.651c0 .439.032.809.097 1.107s.166.527.307.703a1.14 1.14 0 0 0 .536.387c.217.076.472.114.765.114a3.13 3.13 0 0 0 .817-.097 2.4 2.4 0 0 0 .633-.281c.152-.105.287-.229.404-.369a2.35 2.35 0 0 0 .299-.483V17.49h2.11V27h-1.908zm-12.902-1.512a2.49 2.49 0 0 0 .756-.114c.246-.082.463-.196.65-.343a1.66 1.66 0 0 0 .431-.518 1.33 1.33 0 0 0 .167-.659h1.977c.006.463-.099.899-.316 1.31a3.29 3.29 0 0 1-.861 1.046c-.369.305-.794.545-1.275.721a4.42 4.42 0 0 1-1.503.255c-.732 0-1.374-.126-1.924-.378-.545-.258-.999-.604-1.363-1.037s-.647-.937-.835-1.512a6.01 6.01 0 0 1-.281-1.854v-.308a6.13 6.13 0 0 1 .273-1.846c.187-.58.465-1.087.835-1.52s.826-.776 1.371-1.028c.55-.258 1.189-.387 1.916-.387.574 0 1.104.088 1.59.264.493.176.914.422 1.266.738a3.27 3.27 0 0 1 .817 1.134c.2.439.296.923.29 1.45h-1.977a1.82 1.82 0 0 0-.149-.73c-.099-.229-.229-.428-.405-.598a2.03 2.03 0 0 0-.65-.404c-.246-.1-.513-.149-.8-.149-.439 0-.806.091-1.099.273-.287.176-.515.407-.685.694a2.92 2.92 0 0 0-.387.984c-.07.369-.105.744-.105 1.125v.308c0 .387.035.768.105 1.143a2.94 2.94 0 0 0 .378.976 1.95 1.95 0 0 0 .694.703c.293.176.66.264 1.099.264z" class="D"/><path d="M731 175a2 2 0 1 1-4 0V40h4v135z" class="C"/><path d="M635 6a6 6 0 0 1 6-6h175a6 6 0 0 1 6 6v28a6 6 0 0 1-6 6H641a6 6 0 0 1-6-6V6z" class="B"/><path d="M799.164 27.176c-.703 0-1.348-.117-1.934-.352a4.43 4.43 0 0 1-1.494-.976 4.3 4.3 0 0 1-.966-1.45 4.89 4.89 0 0 1-.334-1.819v-.36c0-.744.117-1.418.351-2.022s.557-1.119.967-1.547.885-.756 1.424-.984c.545-.234 1.125-.352 1.74-.352.686 0 1.292.117 1.819.352.528.229.97.548 1.327.958.358.416.627.911.809 1.485s.273 1.201.273 1.881v.905h-6.592v.044c.064.416.164.765.299 1.046s.319.533.553.756c.235.234.51.416.826.545.323.129.674.193 1.055.193a3.57 3.57 0 0 0 1.459-.299 2.93 2.93 0 0 0 1.116-.87l1.125 1.09c-.316.457-.802.867-1.459 1.23-.65.363-1.438.545-2.364.545zm-.255-8.156a2.09 2.09 0 0 0-.835.167 2.1 2.1 0 0 0-.677.457c-.199.205-.366.451-.501.738a3.9 3.9 0 0 0-.298.976h4.473v-.141c0-.275-.05-.548-.149-.817a2.21 2.21 0 0 0-.422-.721 1.88 1.88 0 0 0-.668-.475c-.264-.123-.571-.185-.923-.185zm-15.266 3.155c0-.721.087-1.377.263-1.969.176-.598.431-1.11.765-1.538a3.49 3.49 0 0 1 1.204-.993c.475-.24 1.008-.36 1.6-.36.351 0 .671.038.958.114.287.07.547.176.782.316a2.49 2.49 0 0 1 .431.316 3.37 3.37 0 0 1 .377.387l.088-.958h1.908v9.246c0 .639-.106 1.204-.317 1.696a3.52 3.52 0 0 1-.87 1.266 3.82 3.82 0 0 1-1.371.773 5.33 5.33 0 0 1-1.749.272c-.27 0-.566-.029-.888-.088s-.644-.149-.967-.272a4.46 4.46 0 0 1-.922-.483 3.16 3.16 0 0 1-.756-.721l.993-1.274a3.27 3.27 0 0 0 .545.527c.199.152.401.275.606.369a2.77 2.77 0 0 0 .624.202 2.95 2.95 0 0 0 .642.07 2.87 2.87 0 0 0 .993-.158 2.05 2.05 0 0 0 .747-.457c.188-.193.331-.431.431-.712s.158-.601.158-.958v-.659a4.43 4.43 0 0 1-.387.36 2.34 2.34 0 0 1-.422.29c-.228.129-.48.226-.755.29a3.64 3.64 0 0 1-.897.105c-.586 0-1.113-.12-1.582-.36a3.64 3.64 0 0 1-1.204-1.02c-.328-.428-.583-.935-.765-1.52-.176-.592-.263-1.231-.263-1.916v-.185zm2.109.185c0 .422.041.82.123 1.195.088.375.226.7.413.976a2.02 2.02 0 0 0 .694.677c.282.158.616.237 1.002.237.241 0 .457-.026.651-.079s.378-.126.536-.22a1.94 1.94 0 0 0 .422-.36 2.66 2.66 0 0 0 .325-.466v-4.166a2.14 2.14 0 0 0-.343-.475 1.92 1.92 0 0 0-.448-.36c-.152-.082-.322-.146-.51-.193a2.26 2.26 0 0 0-.615-.079c-.393 0-.73.082-1.011.246a2.02 2.02 0 0 0-.694.677c-.188.287-.325.621-.413 1.002a5.26 5.26 0 0 0-.132 1.204v.185zM779.178 27a1.74 1.74 0 0 1-.158-.422l-.097-.527c-.147.152-.314.299-.501.439a3.14 3.14 0 0 1-.615.352 3.65 3.65 0 0 1-.739.246 3.89 3.89 0 0 1-.852.088c-.492 0-.944-.07-1.354-.211-.404-.146-.75-.346-1.037-.598a2.6 2.6 0 0 1-.685-.888 2.72 2.72 0 0 1-.238-1.134c0-.521.103-.981.308-1.38a2.68 2.68 0 0 1 .914-1.002c.369-.246.823-.434 1.362-.562.545-.129 1.16-.193 1.846-.193h1.529v-.642c0-.246-.044-.469-.132-.668a1.45 1.45 0 0 0-.36-.518c-.17-.146-.378-.258-.624-.334a2.58 2.58 0 0 0-.835-.123c-.287 0-.539.035-.756.105a1.52 1.52 0 0 0-.527.29c-.141.111-.246.249-.316.413a1.33 1.33 0 0 0-.097.51h-2.11c.006-.381.097-.747.273-1.099a2.78 2.78 0 0 1 .773-.932c.329-.275.733-.492 1.213-.65.487-.164 1.04-.246 1.661-.246a5.5 5.5 0 0 1 1.556.211c.486.135.905.337 1.257.606s.627.612.826 1.028c.199.41.299.885.299 1.424v4.227c0 .428.029.815.088 1.16a3.6 3.6 0 0 0 .272.879V27h-2.144zm-2.558-1.512c.276 0 .53-.035.765-.105a3.07 3.07 0 0 0 .65-.272 2.36 2.36 0 0 0 .501-.378 1.69 1.69 0 0 0 .325-.439v-1.758h-1.353c-.457 0-.853.044-1.187.132-.334.082-.6.202-.8.36a1.31 1.31 0 0 0-.395.483c-.082.188-.123.398-.123.633a1.42 1.42 0 0 0 .105.545 1.16 1.16 0 0 0 .308.422c.135.117.302.211.501.281a2.29 2.29 0 0 0 .703.097zm-12.111-3.366V27h-2.11V14.203h4.281c.644.006 1.236.103 1.775.29.545.188 1.014.454 1.406.8a3.57 3.57 0 0 1 .914 1.257c.216.492.326 1.046.326 1.661a3.86 3.86 0 0 1-.326 1.608 3.53 3.53 0 0 1-.914 1.222c-.392.346-.861.612-1.406.8-.539.188-1.131.281-1.775.281h-2.171zm0-1.723h2.171c.357-.006.676-.061.958-.167.287-.111.53-.264.729-.457a1.85 1.85 0 0 0 .448-.686 2.29 2.29 0 0 0 .159-.861 2.55 2.55 0 0 0-.159-.923 1.98 1.98 0 0 0-.448-.73c-.199-.205-.442-.363-.729-.475a2.71 2.71 0 0 0-.958-.176h-2.171v4.474zm-8.807-5.229v2.32h3.577v1.573h-3.577v4.544c0 .352.041.648.123.888a1.36 1.36 0 0 0 .361.554c.152.141.334.24.544.299s.443.088.695.088l.562-.026.563-.07.492-.079.396-.088.228 1.45c-.152.094-.337.176-.554.246a6.55 6.55 0 0 1-.685.167 7.7 7.7 0 0 1-.774.105c-.263.029-.527.044-.791.044a4.35 4.35 0 0 1-1.327-.193 2.67 2.67 0 0 1-1.028-.624c-.287-.275-.513-.63-.677-1.064-.158-.434-.237-.955-.237-1.564v-4.676h-2.303V17.49h2.303v-2.32h2.109zm-10.854 5.52l2.276-3.199h2.329l-3.34 4.685L749.559 27h-2.321l-2.373-3.322L742.501 27h-2.329l3.445-4.825-3.331-4.685h2.312l2.25 3.199zm-10.547 6.486c-.703 0-1.348-.117-1.934-.352a4.43 4.43 0 0 1-1.494-.976 4.32 4.32 0 0 1-.967-1.45 4.91 4.91 0 0 1-.334-1.819v-.36c0-.744.117-1.418.352-2.022s.556-1.119.967-1.547a4.25 4.25 0 0 1 1.423-.984c.545-.234 1.125-.352 1.741-.352.685 0 1.292.117 1.819.352a3.67 3.67 0 0 1 1.327.958c.358.416.627.911.809 1.485s.272 1.201.272 1.881v.905h-6.592v.044c.065.416.164.765.299 1.046a2.58 2.58 0 0 0 .554.756c.234.234.51.416.826.545.322.129.674.193 1.055.193.521 0 1.008-.1 1.459-.299a2.93 2.93 0 0 0 1.116-.87l1.125 1.09c-.316.457-.803.867-1.459 1.23-.65.363-1.438.545-2.364.545zm-.255-8.156a2.09 2.09 0 0 0-1.512.624c-.199.205-.366.451-.501.738a3.9 3.9 0 0 0-.299.976h4.474v-.141c0-.275-.05-.548-.149-.817a2.23 2.23 0 0 0-.422-.721 1.89 1.89 0 0 0-.668-.475c-.264-.123-.572-.185-.923-.185zM727.261 27h-2.118l-4.158-8.807-.008 8.807h-2.136V14.203h2.144l4.131 8.772.018-8.771h2.127V27zm-17.824-9.51l.061 1.046a2.22 2.22 0 0 1 .747-.896c.322-.217.709-.325 1.16-.325a2.33 2.33 0 0 1 .633.079 1.29 1.29 0 0 1 .483.246c.106.082.2.182.282.299a1.75 1.75 0 0 1 .211.387 2.49 2.49 0 0 1 .281-.378 1.81 1.81 0 0 1 .343-.299 1.98 1.98 0 0 1 .527-.246 2.3 2.3 0 0 1 .65-.088 2.14 2.14 0 0 1 .835.158 1.7 1.7 0 0 1 .668.466c.188.223.331.513.431.87s.158.776.158 1.274V27h-1.933v-6.935a1.58 1.58 0 0 0-.062-.475.82.82 0 0 0-.176-.325.68.68 0 0 0-.281-.167 1.11 1.11 0 0 0-.351-.053c-.135 0-.252.018-.352.053a.83.83 0 0 0-.264.149c-.07.059-.129.129-.176.211a.9.9 0 0 0-.105.264v.088.132V27h-1.898v-6.943a1.58 1.58 0 0 0-.062-.475.68.68 0 0 0-.167-.316.69.69 0 0 0-.272-.167 1.03 1.03 0 0 0-.343-.053 1.11 1.11 0 0 0-.378.061.69.69 0 0 0-.273.167c-.058.053-.111.114-.158.185-.041.07-.079.149-.114.237V27h-1.934v-9.51h1.829zm-12.393 4.667c0-.691.1-1.33.299-1.916.199-.592.489-1.104.87-1.538a3.95 3.95 0 0 1 1.38-1.02c.545-.247 1.166-.369 1.863-.369s1.318.123 1.863.369c.551.246 1.017.586 1.398 1.02.375.434.662.946.861 1.538.199.586.299 1.225.299 1.916v.185c0 .697-.1 1.339-.299 1.925s-.486 1.096-.861 1.529-.838.773-1.389 1.02c-.545.246-1.163.369-1.854.369-.698 0-1.322-.123-1.872-.369s-1.014-.586-1.389-1.02c-.381-.434-.671-.943-.87-1.529a5.95 5.95 0 0 1-.299-1.925v-.185zm2.101.185c0 .428.043.832.131 1.213a3.12 3.12 0 0 0 .431 1.002 2.13 2.13 0 0 0 .721.686c.293.164.641.246 1.046.246.392 0 .735-.082 1.028-.246a2.12 2.12 0 0 0 .721-.686c.188-.288.325-.621.413-1.002a5.1 5.1 0 0 0 .14-1.213v-.185a5.02 5.02 0 0 0-.14-1.195 3.36 3.36 0 0 0-.413-1.002 2.21 2.21 0 0 0-.73-.686c-.287-.17-.633-.255-1.037-.255-.398 0-.744.085-1.037.255a2.15 2.15 0 0 0-.712.686 3.12 3.12 0 0 0-.431 1.002c-.088.381-.131.779-.131 1.195v.185zm-8.306-7.172v2.32h3.577v1.573h-3.577v4.544c0 .352.041.648.123.888.088.234.208.419.36.554a1.31 1.31 0 0 0 .545.299c.211.058.443.088.695.088l.562-.026.563-.07.492-.079.395-.088.229 1.45c-.153.094-.337.176-.554.246a6.51 6.51 0 0 1-.686.167 7.68 7.68 0 0 1-.773.105 7.23 7.23 0 0 1-.791.044 4.35 4.35 0 0 1-1.327-.193 2.67 2.67 0 0 1-1.028-.624c-.288-.275-.513-.63-.677-1.064-.158-.434-.238-.955-.238-1.564v-4.676h-2.302V17.49h2.302v-2.32h2.11zm-8.816 9.255a.85.85 0 0 0-.114-.439c-.07-.129-.19-.252-.36-.369-.182-.105-.419-.205-.712-.299a9.23 9.23 0 0 0-1.099-.264 10.84 10.84 0 0 1-1.511-.413 4.84 4.84 0 0 1-1.169-.598c-.323-.223-.575-.486-.756-.791s-.273-.659-.273-1.063c0-.387.091-.753.273-1.099a2.83 2.83 0 0 1 .8-.923c.339-.264.75-.472 1.23-.624a5.4 5.4 0 0 1 1.617-.229c.633 0 1.201.079 1.705.237.504.152.932.363 1.284.633a2.84 2.84 0 0 1 .799.958 2.61 2.61 0 0 1 .282 1.195h-2.101a1.14 1.14 0 0 0-.114-.501 1.28 1.28 0 0 0-.317-.439 1.74 1.74 0 0 0-.633-.36c-.257-.094-.559-.141-.905-.141a2.98 2.98 0 0 0-.835.105 1.67 1.67 0 0 0-.58.272 1.06 1.06 0 0 0-.343.378.93.93 0 0 0-.114.448c0 .164.032.314.097.448a.87.87 0 0 0 .343.343c.152.105.363.202.632.29a7.7 7.7 0 0 0 1.038.237 12.89 12.89 0 0 1 1.59.387c.481.152.891.34 1.231.563.34.234.603.51.791.826s.281.691.281 1.125c0 .422-.1.809-.299 1.16-.193.352-.469.653-.826.905a4.29 4.29 0 0 1-1.301.589 6.22 6.22 0 0 1-1.678.211c-.686 0-1.295-.091-1.829-.273-.527-.182-.969-.422-1.327-.721-.363-.293-.638-.63-.826-1.011s-.281-.768-.281-1.16h2.039a1.51 1.51 0 0 0 .228.747 1.67 1.67 0 0 0 .528.483 2.19 2.19 0 0 0 .703.281 4.05 4.05 0 0 0 .8.079 3.52 3.52 0 0 0 .949-.114c.27-.076.495-.179.659-.308a1.07 1.07 0 0 0 .299-.343.87.87 0 0 0 .105-.422zM671.23 27l-.123-1.327c-.322.475-.714.847-1.177 1.116a3.09 3.09 0 0 1-1.556.395c-.492 0-.943-.076-1.353-.229a2.7 2.7 0 0 1-1.046-.729c-.287-.328-.51-.747-.668-1.257-.159-.516-.238-1.131-.238-1.846V17.49h2.101v5.651c0 .439.032.809.097 1.107s.167.527.307.703a1.15 1.15 0 0 0 .536.387c.217.076.472.114.765.114a3.13 3.13 0 0 0 .817-.097c.241-.07.452-.164.633-.281a2 2 0 0 0 .404-.369 2.35 2.35 0 0 0 .299-.483V17.49h2.11V27h-1.908zm-12.902-1.512a2.49 2.49 0 0 0 .756-.114c.246-.082.463-.196.65-.343a1.59 1.59 0 0 0 .431-.518 1.33 1.33 0 0 0 .167-.659h1.978a2.7 2.7 0 0 1-.317 1.31 3.29 3.29 0 0 1-.861 1.046c-.369.305-.794.545-1.275.721a4.42 4.42 0 0 1-1.503.255c-.732 0-1.374-.126-1.924-.378-.545-.258-.999-.604-1.363-1.037s-.647-.937-.835-1.512a6.01 6.01 0 0 1-.281-1.854v-.308a6.13 6.13 0 0 1 .273-1.846c.187-.58.465-1.087.835-1.52s.826-.776 1.371-1.028c.55-.258 1.189-.387 1.916-.387.574 0 1.104.088 1.591.264s.914.422 1.265.738a3.3 3.3 0 0 1 .818 1.134c.199.439.295.923.29 1.45h-1.978a1.82 1.82 0 0 0-.149-.73 1.74 1.74 0 0 0-.405-.598 2.03 2.03 0 0 0-.65-.404c-.246-.1-.513-.149-.8-.149-.439 0-.806.091-1.099.273-.287.176-.515.407-.685.694a2.92 2.92 0 0 0-.387.984c-.07.369-.105.744-.105 1.125v.308c0 .387.035.768.105 1.143a2.94 2.94 0 0 0 .378.976c.17.293.402.527.694.703s.66.264 1.099.264z" class="D"/><path d="M141 175a2 2 0 1 1-4 0v-59h4v59z" class="C"/><path d="M59 82a6 6 0 0 1 6-6h147a6 6 0 0 1 6 6v28a6 6 0 0 1-6 6H65a6 6 0 0 1-6-6V82z" class="B"/><path d="M198.354 103.176c-.704 0-1.348-.117-1.934-.352-.58-.234-1.078-.559-1.494-.975a4.38 4.38 0 0 1-.967-1.451c-.223-.562-.334-1.168-.334-1.819v-.36c0-.744.117-1.418.352-2.022s.556-1.119.966-1.547.885-.756 1.424-.984c.545-.234 1.125-.352 1.74-.352.686 0 1.292.117 1.82.352.527.228.969.548 1.327.958a4.18 4.18 0 0 1 .808 1.485c.182.574.273 1.201.273 1.881v.905h-6.592v.044c.065.416.164.765.299 1.046s.319.534.554.756c.234.235.509.416.826.545s.674.193 1.055.193a3.58 3.58 0 0 0 1.459-.298 2.93 2.93 0 0 0 1.116-.87l1.125 1.089c-.317.457-.803.868-1.459 1.231s-1.439.545-2.364.545zm-.255-8.157a2.08 2.08 0 0 0-.835.167 2.09 2.09 0 0 0-.677.457c-.199.205-.366.451-.501.738a3.9 3.9 0 0 0-.299.976h4.474v-.141a2.33 2.33 0 0 0-.15-.817 2.19 2.19 0 0 0-.422-.721 1.87 1.87 0 0 0-.668-.475c-.263-.123-.571-.185-.922-.185zm-15.267 3.156c0-.721.088-1.377.264-1.969.175-.598.43-1.11.764-1.538a3.5 3.5 0 0 1 1.204-.993c.475-.24 1.008-.36 1.6-.36a3.73 3.73 0 0 1 .958.114c.287.07.548.176.782.316.153.088.296.193.431.316a3.34 3.34 0 0 1 .378.387l.088-.958h1.907v9.246c0 .639-.105 1.204-.316 1.697a3.51 3.51 0 0 1-.871 1.265 3.82 3.82 0 0 1-1.371.774c-.527.181-1.11.272-1.749.272a4.95 4.95 0 0 1-.887-.088c-.323-.058-.645-.149-.967-.272a4.45 4.45 0 0 1-.923-.484c-.293-.199-.545-.439-.756-.72l.993-1.275c.17.205.352.381.545.528a3.2 3.2 0 0 0 .607.369c.205.094.413.161.624.202a2.94 2.94 0 0 0 .641.07c.375 0 .706-.053.993-.158.293-.105.542-.258.748-.457a1.93 1.93 0 0 0 .43-.712c.106-.281.158-.601.158-.958v-.659c-.123.129-.252.249-.386.36a2.32 2.32 0 0 1-.422.29c-.229.129-.481.226-.756.29-.275.071-.574.106-.897.106-.585 0-1.113-.12-1.582-.361a3.66 3.66 0 0 1-1.204-1.019c-.328-.428-.583-.935-.764-1.521-.176-.591-.264-1.23-.264-1.916v-.185zm2.109.185c0 .422.041.82.123 1.195.088.375.226.7.414.975.181.287.413.513.694.677.281.158.615.237 1.002.237.24 0 .457-.026.65-.079.199-.053.378-.126.536-.219.159-.1.299-.22.422-.361a2.62 2.62 0 0 0 .325-.466v-4.166a2.13 2.13 0 0 0-.342-.475 1.9 1.9 0 0 0-.449-.36 2.15 2.15 0 0 0-.509-.193c-.188-.053-.393-.079-.616-.079-.392 0-.729.082-1.01.246s-.513.39-.695.677a3.21 3.21 0 0 0-.413 1.002 5.26 5.26 0 0 0-.132 1.204v.185zm-6.574 4.64a1.78 1.78 0 0 1-.158-.422l-.097-.527c-.146.152-.313.299-.501.439-.181.135-.386.252-.615.352s-.475.187-.738.246a3.9 3.9 0 0 1-.853.088c-.492 0-.943-.071-1.353-.211-.405-.147-.75-.346-1.037-.598a2.6 2.6 0 0 1-.686-.888 2.73 2.73 0 0 1-.237-1.133c0-.522.102-.982.307-1.38a2.68 2.68 0 0 1 .914-1.002c.37-.246.824-.434 1.363-.562a8.04 8.04 0 0 1 1.845-.193h1.53v-.642c0-.246-.044-.469-.132-.668a1.45 1.45 0 0 0-.36-.518c-.17-.147-.378-.258-.624-.334-.241-.082-.519-.123-.835-.123a2.46 2.46 0 0 0-.756.105 1.52 1.52 0 0 0-.528.29c-.14.111-.246.249-.316.413-.064.158-.097.328-.097.51h-2.109a2.53 2.53 0 0 1 .272-1.099 2.77 2.77 0 0 1 .774-.932c.328-.275.732-.492 1.213-.65.486-.164 1.04-.246 1.661-.246a5.52 5.52 0 0 1 1.556.211c.486.135.905.337 1.256.606a2.8 2.8 0 0 1 .827 1.028c.199.41.298.885.298 1.424v4.228c0 .427.03.814.088 1.16.065.34.156.632.273.879V103h-2.145zm-2.557-1.512c.275 0 .53-.035.764-.105.24-.071.457-.161.651-.273s.36-.237.501-.378a1.7 1.7 0 0 0 .325-.439v-1.758h-1.354c-.457 0-.852.044-1.186.132-.334.082-.601.202-.8.36a1.3 1.3 0 0 0-.396.483c-.082.188-.123.398-.123.633a1.41 1.41 0 0 0 .106.544 1.15 1.15 0 0 0 .307.422c.135.118.302.211.501.282.2.064.434.096.704.096zm-12.112-3.366V103h-2.109V90.203h4.28c.645.006 1.236.103 1.776.29s1.013.454 1.406.8a3.57 3.57 0 0 1 .914 1.257c.217.492.325 1.046.325 1.661a3.86 3.86 0 0 1-.325 1.608c-.217.475-.522.882-.914 1.222-.393.346-.862.612-1.406.8s-1.131.281-1.776.281h-2.171zm0-1.723h2.171c.358-.006.677-.061.958-.167.287-.111.53-.264.73-.457a1.85 1.85 0 0 0 .448-.686 2.31 2.31 0 0 0 .158-.861c0-.34-.053-.647-.158-.923a1.99 1.99 0 0 0-.448-.73 2.04 2.04 0 0 0-.73-.475c-.281-.111-.6-.17-.958-.176h-2.171v4.474zm-6.811 4.026a.84.84 0 0 0-.115-.44c-.07-.129-.19-.252-.36-.369-.182-.106-.419-.205-.712-.299s-.659-.182-1.098-.264a10.79 10.79 0 0 1-1.512-.413c-.451-.164-.841-.363-1.169-.598-.322-.223-.574-.486-.756-.791s-.272-.659-.272-1.063c0-.387.09-.753.272-1.099a2.84 2.84 0 0 1 .8-.923c.34-.264.75-.472 1.23-.624.487-.152 1.026-.229 1.617-.229.633 0 1.202.079 1.706.237.503.152.931.363 1.283.633a2.85 2.85 0 0 1 .8.958 2.61 2.61 0 0 1 .281 1.195h-2.101a1.14 1.14 0 0 0-.114-.501c-.07-.164-.176-.311-.316-.439a1.74 1.74 0 0 0-.633-.36c-.258-.094-.56-.141-.906-.141-.316 0-.594.035-.834.105a1.67 1.67 0 0 0-.581.272c-.152.106-.266.231-.342.378a.93.93 0 0 0-.115.448 1.03 1.03 0 0 0 .097.448c.065.129.179.243.343.343.152.106.363.202.633.29a7.7 7.7 0 0 0 1.037.237c.58.106 1.11.234 1.591.387s.89.34 1.23.563c.34.234.604.51.791.826s.281.691.281 1.125a2.31 2.31 0 0 1-.298 1.16c-.194.352-.469.654-.827.906s-.797.448-1.3.589-1.064.211-1.679.211c-.686 0-1.295-.091-1.828-.273-.528-.182-.97-.422-1.327-.721-.364-.293-.639-.629-.827-1.01a2.61 2.61 0 0 1-.281-1.16h2.039c.018.292.094.541.229.747.14.199.316.36.527.483a2.2 2.2 0 0 0 .703.281 4.05 4.05 0 0 0 .8.079c.363 0 .68-.038.949-.114.276-.076.495-.179.659-.308.135-.105.235-.219.299-.342a.86.86 0 0 0 .106-.422zM146.094 103l-.123-1.327c-.323.474-.715.847-1.178 1.116-.463.264-.981.396-1.556.396-.492 0-.943-.077-1.353-.229a2.7 2.7 0 0 1-1.046-.729c-.287-.329-.51-.748-.668-1.257-.158-.516-.237-1.131-.237-1.846V93.49h2.1v5.651c0 .44.032.809.097 1.107s.167.527.308.703c.14.182.319.311.536.387a2.31 2.31 0 0 0 .764.114c.305 0 .577-.032.818-.097a2.23 2.23 0 0 0 .632-.281c.153-.105.288-.228.405-.369s.217-.308.299-.483V93.49h2.109V103h-1.907zm-17.429-4.843c0-.691.1-1.33.299-1.916a4.44 4.44 0 0 1 .87-1.538 3.95 3.95 0 0 1 1.38-1.02c.545-.247 1.166-.369 1.863-.369s1.319.123 1.863.369c.551.246 1.017.586 1.398 1.02.375.434.662.946.861 1.538.199.586.299 1.225.299 1.916v.185c0 .697-.1 1.339-.299 1.925s-.486 1.095-.861 1.529-.838.773-1.389 1.019c-.545.247-1.163.37-1.854.37-.698 0-1.322-.123-1.872-.37a3.95 3.95 0 0 1-1.389-1.019c-.381-.434-.671-.943-.87-1.529s-.299-1.228-.299-1.925v-.185zm2.101.185c0 .428.044.832.131 1.213a3.12 3.12 0 0 0 .431 1.002c.188.287.428.515.721.685.293.164.641.246 1.046.246.392 0 .735-.082 1.028-.246.293-.17.533-.398.721-.685s.325-.621.413-1.002a5.05 5.05 0 0 0 .14-1.213v-.185a4.97 4.97 0 0 0-.14-1.195c-.094-.381-.232-.715-.413-1.002a2.21 2.21 0 0 0-.73-.686c-.287-.17-.633-.255-1.037-.255-.398 0-.744.085-1.037.255a2.15 2.15 0 0 0-.712.686 3.12 3.12 0 0 0-.431 1.002 5.35 5.35 0 0 0-.131 1.195v.185zm-12.041-4.852h5.045v7.77h2.794V103h-7.839v-1.74h2.926v-6.021h-2.926V93.49zm2.733-2.461c0-.17.029-.325.088-.466a1.03 1.03 0 0 1 .255-.378 1.06 1.06 0 0 1 .378-.229c.152-.059.322-.088.509-.088.317 0 .572.082.765.246a.89.89 0 0 1 .343.615c.041.258-.003.483-.132.677-.129.188-.316.313-.562.378a.92.92 0 0 1-.44.22c-.17.035-.357.02-.562-.044a.87.87 0 0 1-.484-.343c-.105-.17-.158-.366-.158-.589zM110.542 103l-3.744-9.51h2.18l2.355 6.9.141.632.14-.632 2.329-6.9h2.18l-3.727 9.51h-1.854zm-9.483.176c-.704 0-1.348-.117-1.934-.352-.58-.234-1.078-.559-1.494-.975a4.32 4.32 0 0 1-.967-1.451c-.223-.562-.334-1.168-.334-1.819v-.36c0-.744.117-1.418.352-2.022s.557-1.119.967-1.547.885-.756 1.424-.984c.545-.234 1.125-.352 1.74-.352.686 0 1.292.117 1.82.352a3.66 3.66 0 0 1 1.327.958c.357.416.627.911.809 1.485s.272 1.201.272 1.881v.905h-6.592v.044c.064.416.164.765.299 1.046a2.55 2.55 0 0 0 .554.756c.234.235.51.416.826.545.322.129.674.193 1.055.193a3.58 3.58 0 0 0 1.459-.298 2.93 2.93 0 0 0 1.116-.87l1.125 1.089c-.317.457-.803.868-1.459 1.231s-1.439.545-2.364.545zm-.255-8.157a2.09 2.09 0 0 0-.835.167c-.252.106-.478.258-.677.457-.199.205-.366.451-.501.738s-.234.612-.299.976h4.474v-.141a2.33 2.33 0 0 0-.15-.817 2.21 2.21 0 0 0-.421-.721 1.89 1.89 0 0 0-.668-.475c-.264-.123-.572-.185-.923-.185zm-8.42-1.704a6.71 6.71 0 0 1 .984.07c.322.047.574.103.756.167l-.299 2.074a9.31 9.31 0 0 0-.958-.158 8.32 8.32 0 0 0-.932-.053c-.352 0-.668.035-.949.105a2.33 2.33 0 0 0-.747.325 2.09 2.09 0 0 0-.598.536c-.164.217-.302.466-.413.747V103h-2.101v-9.51h1.969l.088 1.318.009.22c.387-.533.85-.952 1.389-1.257.545-.305 1.146-.457 1.802-.457zm-17.367 13.341V93.49h1.934l.079.976c.129-.158.269-.302.422-.431a2.79 2.79 0 0 1 .492-.334c.228-.123.48-.217.756-.281.275-.07.568-.105.879-.105.609 0 1.145.117 1.608.352a3.26 3.26 0 0 1 1.178.993c.311.428.548.94.712 1.538.164.592.246 1.245.246 1.96v.185c0 .685-.082 1.324-.246 1.916-.158.592-.395 1.101-.712 1.529a3.41 3.41 0 0 1-1.169 1.02c-.463.246-.993.369-1.591.369a3.91 3.91 0 0 1-.94-.106 3.17 3.17 0 0 1-.782-.307c-.141-.082-.275-.176-.404-.282a3.33 3.33 0 0 1-.36-.342v4.517h-2.101zm6.205-8.499c0-.428-.044-.829-.132-1.204-.082-.381-.211-.712-.387-.993a2.05 2.05 0 0 0-.694-.668c-.281-.164-.618-.246-1.011-.246a2.48 2.48 0 0 0-.606.07 1.83 1.83 0 0 0-.501.202 1.75 1.75 0 0 0-.448.352 2.51 2.51 0 0 0-.325.475v4.228a2.12 2.12 0 0 0 .299.448c.117.134.252.252.404.352.158.094.337.17.536.228a2.56 2.56 0 0 0 .659.079c.393 0 .727-.082 1.002-.246a2.02 2.02 0 0 0 .686-.685 3.17 3.17 0 0 0 .395-1.002 5.71 5.71 0 0 0 .123-1.204v-.185z" class="D"/><path d="M510 169h-4v-39h4v39z" class="C"/><path d="M442 98a6 6 0 0 1 6-6h119a6 6 0 0 1 6 6v28a6 6 0 0 1-6 6H448a6 6 0 0 1-6-6V98z" class="B"/><path d="M556.543 119.176c-.703 0-1.348-.117-1.934-.352-.58-.234-1.078-.559-1.494-.975a4.38 4.38 0 0 1-.967-1.451 4.91 4.91 0 0 1-.334-1.819v-.36c0-.744.118-1.418.352-2.022s.557-1.119.967-1.547a4.27 4.27 0 0 1 1.424-.984c.545-.234 1.125-.352 1.74-.352.685 0 1.292.118 1.819.352a3.73 3.73 0 0 1 1.327.958c.358.416.627.911.809 1.485a6.2 6.2 0 0 1 .272 1.881v.906h-6.591v.043c.064.416.164.765.298 1.046a2.56 2.56 0 0 0 .554.756c.235.235.51.416.826.545.323.129.674.193 1.055.193.522 0 1.008-.099 1.459-.298a2.93 2.93 0 0 0 1.116-.87l1.125 1.089c-.316.457-.803.868-1.459 1.231-.65.363-1.438.545-2.364.545zm-.255-8.156c-.299 0-.577.055-.835.167-.252.105-.477.257-.677.457a2.6 2.6 0 0 0-.501.738c-.135.287-.234.612-.298.975h4.473v-.14a2.36 2.36 0 0 0-.149-.818c-.1-.275-.24-.515-.422-.72-.176-.2-.399-.358-.668-.475-.264-.123-.571-.184-.923-.184zm-15.267 3.155c0-.721.088-1.377.264-1.969.176-.598.431-1.11.765-1.538a3.49 3.49 0 0 1 1.204-.993c.475-.24 1.008-.361 1.6-.361a3.75 3.75 0 0 1 .958.115c.287.07.547.175.782.316.152.088.296.193.43.317.135.117.261.246.378.386l.088-.958h1.907v9.246c0 .639-.105 1.204-.316 1.697-.205.498-.495.92-.87 1.265-.381.34-.838.598-1.371.774s-1.111.272-1.749.272c-.27 0-.566-.029-.888-.088a5.41 5.41 0 0 1-.967-.272 4.45 4.45 0 0 1-.923-.484 3.17 3.17 0 0 1-.755-.72l.993-1.275a3.3 3.3 0 0 0 .545.528c.199.152.401.275.606.369s.413.161.624.202c.211.047.425.07.642.07.375 0 .706-.053.993-.158a2.05 2.05 0 0 0 .747-.457c.188-.193.331-.431.431-.712s.158-.601.158-.958v-.659c-.123.129-.252.249-.387.36a2.29 2.29 0 0 1-.422.29 2.82 2.82 0 0 1-.756.29 3.58 3.58 0 0 1-.896.106c-.586 0-1.113-.12-1.582-.361a3.65 3.65 0 0 1-1.204-1.019c-.328-.428-.583-.935-.765-1.521-.176-.591-.264-1.23-.264-1.916v-.184zm2.11.184a5.59 5.59 0 0 0 .123 1.196c.088.375.225.7.413.975.182.287.413.513.694.677.282.158.616.237 1.002.237.241 0 .457-.026.651-.079s.378-.126.536-.219c.158-.1.299-.22.422-.361a2.67 2.67 0 0 0 .325-.466v-4.166c-.094-.175-.208-.334-.343-.474-.129-.141-.278-.261-.448-.361-.152-.082-.322-.146-.51-.193a2.25 2.25 0 0 0-.615-.079c-.393 0-.73.082-1.011.246s-.513.39-.694.677c-.188.287-.325.621-.413 1.002-.088.375-.132.776-.132 1.204v.184zM536.557 119c-.065-.117-.118-.258-.159-.422l-.096-.527c-.147.152-.314.299-.501.439a3.05 3.05 0 0 1-.615.352c-.229.105-.475.187-.739.246a3.96 3.96 0 0 1-.852.088 4.17 4.17 0 0 1-1.354-.211c-.404-.147-.75-.346-1.037-.598a2.6 2.6 0 0 1-.685-.888c-.159-.351-.238-.729-.238-1.133 0-.522.103-.982.308-1.38.211-.404.515-.738.914-1.002.369-.246.823-.434 1.362-.563.545-.129 1.16-.193 1.846-.193h1.529v-.642a1.64 1.64 0 0 0-.132-.668 1.45 1.45 0 0 0-.36-.518c-.17-.147-.378-.258-.624-.334-.24-.082-.519-.123-.835-.123-.287 0-.539.035-.756.105-.211.071-.387.167-.527.29-.141.112-.246.249-.317.413-.064.159-.096.329-.096.51h-2.11a2.51 2.51 0 0 1 .273-1.098 2.76 2.76 0 0 1 .773-.932c.328-.275.733-.492 1.213-.65.487-.165 1.04-.247 1.661-.247.557 0 1.076.071 1.556.211.486.135.905.337 1.257.607a2.79 2.79 0 0 1 .826 1.028c.199.41.299.885.299 1.424v4.228a6.94 6.94 0 0 0 .088 1.16c.064.34.155.632.272.879V119h-2.144zm-2.558-1.512a2.67 2.67 0 0 0 .765-.105c.24-.071.457-.161.65-.273a2.42 2.42 0 0 0 .501-.378 1.7 1.7 0 0 0 .325-.439v-1.758h-1.353c-.457 0-.853.044-1.187.132-.334.082-.6.202-.8.36-.175.135-.307.296-.395.484a1.56 1.56 0 0 0-.123.633 1.41 1.41 0 0 0 .105.544 1.15 1.15 0 0 0 .308.422c.135.118.302.211.501.282.199.064.433.096.703.096zm-12.111-3.366V119h-2.11v-12.797h4.281c.644.006 1.236.103 1.775.29.545.188 1.014.454 1.406.8a3.56 3.56 0 0 1 .914 1.257c.217.492.325 1.046.325 1.661a3.86 3.86 0 0 1-.325 1.608 3.53 3.53 0 0 1-.914 1.222c-.392.346-.861.612-1.406.8-.539.187-1.131.281-1.775.281h-2.171zm0-1.723h2.171a2.82 2.82 0 0 0 .958-.167c.287-.111.53-.263.729-.457s.349-.421.448-.685a2.29 2.29 0 0 0 .159-.861 2.55 2.55 0 0 0-.159-.923 1.97 1.97 0 0 0-.448-.73 2.01 2.01 0 0 0-.729-.474c-.282-.112-.601-.17-.958-.176h-2.171v4.473zm-8.587 6.777c-.703 0-1.348-.117-1.934-.352-.58-.234-1.078-.559-1.494-.975a4.38 4.38 0 0 1-.967-1.451 4.91 4.91 0 0 1-.334-1.819v-.36c0-.744.117-1.418.352-2.022s.556-1.119.967-1.547.884-.755 1.423-.984c.545-.234 1.125-.352 1.741-.352.685 0 1.292.118 1.819.352a3.67 3.67 0 0 1 1.327.958c.358.416.627.911.809 1.485a6.2 6.2 0 0 1 .272 1.881v.906h-6.592v.043c.065.416.164.765.299 1.046a2.56 2.56 0 0 0 .554.756c.234.235.51.416.826.545.322.129.674.193 1.055.193.521 0 1.008-.099 1.459-.298a2.93 2.93 0 0 0 1.116-.87l1.125 1.089c-.316.457-.803.868-1.459 1.231-.65.363-1.438.545-2.364.545zm-.255-8.156c-.299 0-.577.055-.835.167a2.07 2.07 0 0 0-.677.457c-.199.205-.366.451-.501.738s-.234.612-.299.975h4.474v-.14a2.36 2.36 0 0 0-.149-.818c-.1-.275-.241-.515-.422-.72s-.399-.358-.668-.475c-.264-.123-.572-.184-.923-.184zM501.163 119l-3.744-9.51h2.18l2.355 6.9.141.632.14-.632 2.329-6.9h2.18l-3.726 9.51h-1.855zm-13.438-9.51h5.045v7.77h2.794V119h-7.839v-1.74h2.926v-6.021h-2.926v-1.749zm2.733-2.461c0-.17.029-.325.088-.466.058-.146.143-.272.255-.377a1.06 1.06 0 0 1 .378-.229c.152-.059.322-.088.509-.088.317 0 .572.082.765.246a.89.89 0 0 1 .343.615c.041.258-.003.484-.132.677a.94.94 0 0 1-.562.378c-.123.111-.27.185-.44.22s-.357.02-.562-.044c-.211-.065-.372-.179-.484-.343-.105-.17-.158-.366-.158-.589zm-9.809.141v2.32h3.578v1.573h-3.578v4.544c0 .352.041.648.123.888a1.36 1.36 0 0 0 .361.554c.152.14.334.24.545.299a2.61 2.61 0 0 0 .694.088l.563-.027.562-.07.492-.079.396-.088.228 1.45c-.152.094-.337.176-.553.246s-.44.12-.686.167-.504.082-.773.106l-.791.044c-.481 0-.923-.065-1.328-.194-.398-.135-.741-.343-1.028-.624-.287-.275-.513-.63-.677-1.063-.158-.434-.237-.955-.237-1.565v-4.676h-2.303v-1.573h2.303v-2.32h2.109zm-10.889 10.318a2.5 2.5 0 0 0 .756-.114c.246-.082.463-.196.65-.343a1.6 1.6 0 0 0 .431-.518c.111-.2.167-.419.167-.659h1.977a2.68 2.68 0 0 1-.316 1.309 3.28 3.28 0 0 1-.862 1.046c-.369.305-.793.545-1.274.721-.475.17-.976.255-1.503.255-.732 0-1.374-.126-1.925-.378a3.96 3.96 0 0 1-1.362-1.037 4.44 4.44 0 0 1-.835-1.512c-.187-.58-.281-1.198-.281-1.855v-.307a6.16 6.16 0 0 1 .272-1.846c.188-.58.466-1.087.835-1.521s.826-.776 1.371-1.028c.551-.258 1.19-.387 1.916-.387.575 0 1.105.088 1.591.264.492.176.914.422 1.266.738a3.3 3.3 0 0 1 .817 1.134 3.38 3.38 0 0 1 .29 1.45h-1.977a1.8 1.8 0 0 0-.15-.729c-.093-.229-.228-.428-.404-.598-.182-.17-.398-.304-.65-.404a2.11 2.11 0 0 0-.8-.149c-.44 0-.806.09-1.099.272-.287.176-.515.407-.685.694-.182.287-.311.616-.387.985-.07.369-.106.744-.106 1.125v.307c0 .387.036.768.106 1.143.076.369.202.694.378.975a1.95 1.95 0 0 0 .694.704c.293.175.659.263 1.099.263zM460.883 119a1.74 1.74 0 0 1-.158-.422l-.097-.527c-.147.152-.314.299-.501.439a3.05 3.05 0 0 1-.615.352c-.229.105-.475.187-.739.246a3.95 3.95 0 0 1-.852.088c-.492 0-.943-.071-1.354-.211-.404-.147-.75-.346-1.037-.598a2.6 2.6 0 0 1-.685-.888 2.73 2.73 0 0 1-.238-1.133c0-.522.103-.982.308-1.38a2.68 2.68 0 0 1 .914-1.002c.369-.246.823-.434 1.362-.563.545-.129 1.161-.193 1.846-.193h1.529v-.642c0-.246-.044-.468-.131-.668a1.45 1.45 0 0 0-.361-.518c-.17-.147-.378-.258-.624-.334a2.58 2.58 0 0 0-.835-.123c-.287 0-.539.035-.756.105-.211.071-.386.167-.527.29a1.04 1.04 0 0 0-.316.413c-.065.159-.097.329-.097.51h-2.109c.005-.381.096-.747.272-1.098a2.77 2.77 0 0 1 .773-.932c.329-.275.733-.492 1.213-.65.487-.165 1.04-.247 1.661-.247.557 0 1.076.071 1.556.211.486.135.905.337 1.257.607a2.79 2.79 0 0 1 .826 1.028c.199.41.299.885.299 1.424v4.228a6.94 6.94 0 0 0 .088 1.16c.064.34.155.632.272.879V119h-2.144zm-2.558-1.512c.276 0 .53-.035.765-.105s.457-.161.65-.273.361-.237.501-.378.249-.287.325-.439v-1.758h-1.353c-.457 0-.853.044-1.187.132-.334.082-.6.202-.799.36a1.3 1.3 0 0 0-.396.484 1.56 1.56 0 0 0-.123.633 1.41 1.41 0 0 0 .105.544 1.15 1.15 0 0 0 .308.422c.135.118.302.211.501.282.199.064.434.096.703.096z" class="D"/><path d="M879 175a2 2 0 1 1-4 0v-59h4v59z" class="C"/><path d="M816 82a6 6 0 0 1 6-6h109a6 6 0 0 1 6 6v28a6 6 0 0 1-6 6H822a6 6 0 0 1-6-6V82z" class="B"/><path d="M914.732 103.176c-.703 0-1.347-.117-1.933-.352-.58-.234-1.078-.559-1.494-.975s-.739-.894-.967-1.451c-.223-.562-.334-1.168-.334-1.819v-.36c0-.744.117-1.418.351-2.022s.557-1.119.967-1.547.885-.756 1.424-.984c.545-.234 1.125-.352 1.74-.352.686 0 1.292.117 1.82.352.527.228.969.548 1.327.958a4.18 4.18 0 0 1 .808 1.485c.182.574.273 1.201.273 1.881v.905h-6.592v.044c.065.416.164.765.299 1.046s.319.534.554.756c.234.235.509.416.826.545a2.81 2.81 0 0 0 1.054.193c.522 0 1.008-.099 1.459-.298.452-.205.824-.495 1.117-.87l1.125 1.089c-.317.457-.803.868-1.459 1.231s-1.439.545-2.365.545zm-.254-8.157a2.08 2.08 0 0 0-.835.167 2.09 2.09 0 0 0-.677.457c-.199.205-.366.451-.501.738a3.86 3.86 0 0 0-.299.976h4.474v-.141a2.33 2.33 0 0 0-.15-.817 2.19 2.19 0 0 0-.422-.721 1.87 1.87 0 0 0-.668-.475c-.263-.123-.571-.185-.922-.185zm-15.267 3.156c0-.721.088-1.377.264-1.969.175-.598.43-1.11.764-1.538a3.5 3.5 0 0 1 1.204-.993c.475-.24 1.008-.36 1.6-.36a3.73 3.73 0 0 1 .958.114c.287.07.548.176.782.316.153.088.296.193.431.316a3.34 3.34 0 0 1 .378.387l.088-.958h1.907v9.246c0 .639-.106 1.204-.316 1.697a3.52 3.52 0 0 1-.871 1.265c-.38.34-.838.598-1.371.774-.527.181-1.11.272-1.749.272a4.95 4.95 0 0 1-.887-.088c-.323-.058-.645-.149-.967-.272a4.45 4.45 0 0 1-.923-.484c-.293-.199-.545-.439-.756-.72l.993-1.275c.17.205.352.381.545.528a3.2 3.2 0 0 0 .607.369c.205.094.413.161.624.202.211.047.424.07.641.07.375 0 .706-.053.993-.158a2.05 2.05 0 0 0 .747-.457 1.92 1.92 0 0 0 .431-.712c.106-.281.158-.601.158-.958v-.659c-.123.129-.252.249-.386.36a2.32 2.32 0 0 1-.422.29c-.229.129-.481.226-.756.29-.276.071-.574.106-.897.106-.586 0-1.113-.12-1.582-.361a3.66 3.66 0 0 1-1.204-1.019c-.328-.428-.583-.935-.764-1.521s-.264-1.23-.264-1.916v-.185zm2.109.185c0 .422.041.82.123 1.195.088.375.226.7.413.975.182.287.414.513.695.677.281.158.615.237 1.002.237.24 0 .457-.026.65-.079.199-.053.378-.126.536-.219.158-.1.299-.22.422-.361a2.62 2.62 0 0 0 .325-.466v-4.166a2.13 2.13 0 0 0-.342-.475 1.9 1.9 0 0 0-.449-.36 2.15 2.15 0 0 0-.509-.193c-.188-.053-.393-.079-.616-.079-.392 0-.729.082-1.01.246s-.513.39-.695.677a3.21 3.21 0 0 0-.413 1.002 5.26 5.26 0 0 0-.132 1.204v.185zm-6.574 4.64a1.78 1.78 0 0 1-.158-.422l-.097-.527c-.146.152-.313.299-.501.439-.181.135-.386.252-.615.352a3.72 3.72 0 0 1-.738.246c-.264.058-.548.088-.853.088-.492 0-.943-.071-1.353-.211-.405-.147-.75-.346-1.037-.598a2.6 2.6 0 0 1-.686-.888 2.73 2.73 0 0 1-.237-1.133c0-.522.102-.982.307-1.38a2.68 2.68 0 0 1 .914-1.002c.37-.246.824-.434 1.363-.562a8.04 8.04 0 0 1 1.845-.193h1.53v-.642c0-.246-.044-.469-.132-.668a1.45 1.45 0 0 0-.36-.518 1.72 1.72 0 0 0-.625-.334c-.24-.082-.518-.123-.834-.123-.288 0-.54.035-.756.105s-.387.167-.528.29c-.14.111-.246.249-.316.413a1.33 1.33 0 0 0-.097.51h-2.109a2.53 2.53 0 0 1 .272-1.099 2.77 2.77 0 0 1 .774-.932c.328-.275.732-.492 1.213-.65.486-.164 1.04-.246 1.661-.246a5.5 5.5 0 0 1 1.555.211 3.64 3.64 0 0 1 1.257.606c.351.269.627.612.826 1.028.2.41.299.885.299 1.424v4.228c0 .427.03.814.088 1.16.065.34.155.632.273.879V103h-2.145zm-2.558-1.512a2.66 2.66 0 0 0 .765-.105c.24-.071.457-.161.651-.273a2.35 2.35 0 0 0 .5-.378c.141-.14.25-.287.326-.439v-1.758h-1.354c-.457 0-.852.044-1.186.132-.334.082-.601.202-.8.36a1.3 1.3 0 0 0-.396.483c-.082.188-.123.398-.123.633a1.39 1.39 0 0 0 .106.544 1.15 1.15 0 0 0 .307.422c.135.118.302.211.501.282.2.064.434.096.703.096zm-12.111-3.366V103h-2.109V90.203h4.28a5.54 5.54 0 0 1 1.775.29c.545.188 1.014.454 1.407.8a3.57 3.57 0 0 1 .914 1.257c.217.492.325 1.046.325 1.661a3.86 3.86 0 0 1-.325 1.608c-.217.475-.522.882-.914 1.222-.393.346-.862.612-1.407.8-.539.188-1.13.281-1.775.281h-2.171zm0-1.723h2.171a2.84 2.84 0 0 0 .958-.167c.287-.111.53-.264.73-.457a1.85 1.85 0 0 0 .448-.686c.1-.264.158-.551.158-.861 0-.34-.053-.647-.158-.923a1.99 1.99 0 0 0-.448-.73 2.04 2.04 0 0 0-.73-.475 2.72 2.72 0 0 0-.958-.176h-2.171v4.474zm-8.806-5.229v2.32h3.577v1.573h-3.577v4.544c0 .352.041.648.123.888.087.234.208.419.36.554s.334.24.545.299a2.61 2.61 0 0 0 .694.088l.563-.027.562-.07.492-.079.396-.088.228 1.45c-.152.094-.337.176-.553.246s-.44.12-.686.167-.504.082-.773.106l-.791.044c-.481 0-.923-.065-1.327-.194-.399-.135-.742-.343-1.029-.624-.287-.275-.513-.63-.677-1.063-.158-.434-.237-.955-.237-1.565v-4.676h-2.303V93.49h2.303v-2.32h2.11zm-10.855 5.52l2.276-3.199h2.329l-3.339 4.685 3.445 4.825h-2.32l-2.373-3.322-2.365 3.322h-2.329l3.446-4.825-3.332-4.685h2.312l2.25 3.199zm-10.547 6.486c-.703 0-1.348-.117-1.933-.352s-1.079-.559-1.495-.975a4.31 4.31 0 0 1-.966-1.451c-.223-.562-.334-1.168-.334-1.819v-.36c0-.744.117-1.418.351-2.022s.557-1.119.967-1.547.885-.756 1.424-.984c.545-.234 1.125-.352 1.74-.352.686 0 1.292.117 1.819.352.528.228.97.548 1.328.958.357.416.626.911.808 1.485s.273 1.201.273 1.881v.905h-6.592v.044c.064.416.164.765.299 1.046a2.57 2.57 0 0 0 .553.756 2.47 2.47 0 0 0 .827.545c.322.129.673.193 1.054.193.522 0 1.008-.099 1.459-.298a2.93 2.93 0 0 0 1.116-.87l1.125 1.089c-.316.457-.802.868-1.459 1.231-.65.363-1.438.545-2.364.545zm-.255-8.157a2.09 2.09 0 0 0-.835.167 2.1 2.1 0 0 0-.676.457 2.65 2.65 0 0 0-.501.738 3.86 3.86 0 0 0-.299.976h4.473v-.141a2.33 2.33 0 0 0-.149-.817 2.21 2.21 0 0 0-.422-.721 1.88 1.88 0 0 0-.668-.475c-.264-.123-.571-.185-.923-.185zM834.62 103v-9.51h1.899l.131 1.354a3.92 3.92 0 0 1 .422-.501 3.72 3.72 0 0 1 .501-.422 3.45 3.45 0 0 1 .923-.448c.334-.106.686-.158 1.055-.158a4.05 4.05 0 0 1 1.336.211c.404.141.75.363 1.037.668s.51.694.668 1.169c.158.469.237 1.037.237 1.705V103h-2.1v-5.897c0-.393-.044-.721-.132-.984s-.217-.475-.387-.633a1.43 1.43 0 0 0-.615-.334c-.241-.07-.516-.105-.826-.105-.258 0-.498.035-.721.105a2.13 2.13 0 0 0-.607.281c-.14.094-.272.208-.395.343a2.64 2.64 0 0 0-.325.439V103h-2.101z" class="D"/></svg>